<?xml version="1.0" encoding="UTF-8" standalone="no"?>
<svg width="96px" height="89px" viewBox="0 0 96 89" version="1.1" xmlns="http://www.w3.org/2000/svg" xmlns:xlink="http://www.w3.org/1999/xlink" xmlns:sketch="http://www.bohemiancoding.com/sketch/ns">
    <!-- Generator: Sketch 3.1.1 (8761) - http://www.bohemiancoding.com/sketch -->
    <title>qmjhl-outlined 4</title>
    <desc>Created with Sketch.</desc>
    <defs></defs>
    <g id="Article-" stroke="none" stroke-width="1" fill="none" fill-rule="evenodd" sketch:type="MSPage">
        <g id="Article-Detail-with-embeds" sketch:type="MSArtboardGroup" transform="translate(-65.000000, -58.000000)">
            <g id="qmjhl-outlined-4" sketch:type="MSLayerGroup" transform="translate(69.000000, 59.000000)">
                <g id="Group" sketch:type="MSShapeGroup">
                    <path d="M86.1681818,44.8467742 C86.0333333,44.7129032 85.8984848,44.7129032 85.7636364,44.5790323 C84.0106061,43.7758065 82.1227273,43.2403226 80.369697,42.5709677 C79.4257576,42.3032258 78.6166667,42.0354839 77.6727273,41.633871 C76.4590909,41.2322581 75.2454545,41.366129 74.1666667,41.633871 C73.7621212,40.8306452 73.0878788,40.0274194 72.1439394,39.6258065 C72.0090909,39.6258065 71.8742424,39.4919355 71.8742424,39.4919355 L65.9409091,37.483871 C65.5363636,37.35 64.1878788,37.216129 63.1090909,37.6177419 C62.9742424,37.6177419 62.8393939,37.7516129 62.569697,37.8854839 L62.4348485,37.8854839 C62.3,37.6177419 62.1651515,37.35 62.030303,37.216129 C61.4909091,36.4129032 60.8166667,35.7435484 60.0075758,35.4758065 L54.2090909,33.6016129 C53.669697,33.333871 52.9954545,33.2 52.3212121,33.2 L52.1863636,33.2 C52.1863636,33.066129 52.0515152,33.066129 52.0515152,32.9322581 C51.9166667,32.6645161 49.0848485,27.3096774 49.0848485,27.3096774 C48.95,27.1758065 48.95,27.0419355 48.8151515,26.9080645 C48.4106061,26.5064516 48.0060606,26.1048387 47.4666667,25.8370968 C50.4333333,18.8758065 52.8606061,12.9854839 53.4,11.5129032 C54.0742424,10.0403226 53.8045455,8.43387097 52.7257576,7.49677419 C52.1863636,6.96129032 51.3772727,6.69354839 50.5681818,6.69354839 C50.0287879,6.69354839 49.6242424,6.82741935 49.3545455,6.82741935 C49.0848485,6.96129032 48.95,6.96129032 48.8151515,7.09516129 L43.0166667,10.5758065 L39.3757576,6.96129032 C39.1060606,6.69354839 38.5666667,6.29193548 37.7575758,6.02419355 C37.6227273,5.62258065 37.3530303,5.22096774 37.2181818,4.95322581 L37.0833333,4.81935484 L33.7121212,1.33870968 C33.0378788,0.535483871 32.0939394,0.133870968 31.15,0.133870968 C29.9363636,0.133870968 28.8575758,0.803225806 28.3181818,1.87419355 C28.3181818,2.00806452 28.0484848,2.27580645 3.10151515,61.3129032 C3.10151515,61.4467742 2.96666667,61.4467742 2.96666667,61.5806452 C2.56212121,62.7854839 2.6969697,64.6596774 3.91060606,65.8645161 C4.18030303,66.1322581 4.58484848,66.4 4.98939394,66.533871 C5.39393939,66.6677419 6.06818182,66.9354839 6.87727273,66.9354839 C7.1469697,66.9354839 7.55151515,66.9354839 7.82121212,66.8016129 C10.9227273,66.266129 16.1818182,65.9983871 18.7439394,65.8645161 C19.6878788,65.8645161 20.3621212,65.7306452 20.4969697,65.7306452 C21.1712121,65.5967742 21.7106061,65.3290323 22.25,65.0612903 C22.519697,65.1951613 22.7893939,65.3290323 23.0590909,65.3290323 L23.5984848,65.3290323 L23.8681818,65.3290323 C27.3742424,65.0612903 30.7454545,64.9274194 34.3863636,64.9274194 L37.4878788,64.7935484 L37.8924242,64.7935484 C38.5666667,64.6596774 39.1060606,64.3919355 39.5106061,64.1241935 C39.9151515,64.3919355 40.4545455,64.6596774 41.1287879,64.7935484 L41.6681818,64.7935484 L42.0727273,64.7935484 L43.4212121,64.7935484 L44.769697,64.7935484 C45.4439394,64.7935484 46.1181818,64.7935484 46.7924242,64.6596774 C47.4666667,64.6596774 48.0060606,64.3919355 48.4106061,64.1241935 C48.5454545,64.2580645 48.680303,64.2580645 48.8151515,64.3919355 C49.219697,64.5258065 49.6242424,64.6596774 50.0287879,64.6596774 L54.6136364,64.6596774 L55.1530303,64.6596774 C55.6924242,64.6596774 56.0969697,64.3919355 56.5015152,64.2580645 C56.7712121,64.5258065 57.1757576,64.6596774 57.580303,64.7935484 C57.7151515,64.7935484 57.9848485,64.9274194 58.2545455,64.9274194 L63.6484848,64.9274194 C64.4575758,64.9274194 65.2666667,64.6596774 65.8060606,64.1241935 C66.480303,64.6596774 67.2893939,65.1951613 68.7727273,65.3290323 L69.0424242,65.3290323 L73.2227273,65.4629032 L73.3575758,66.6677419 L67.6939394,66.4 L48.680303,66.1322581 L35.4651515,66.9354839 L24.0030303,67.4709677 L13.4848485,68.6758065 L13.35,68.6758065 C13.35,68.6758065 7.01212121,69.7467742 6.60757576,69.8806452 C4.98939394,70.1483871 3.91060606,71.6209677 4.04545455,73.2274194 C4.04545455,73.7629032 4.31515152,74.2983871 4.45,74.7 C3.37121212,74.833871 2.56212121,74.9677419 2.42727273,75.1016129 C0.809090909,75.3693548 -0.26969697,76.8419355 -0.134848485,78.4483871 C5.63715741e-14,80.0548387 1.21363636,81.3935484 2.96666667,81.5274194 C3.10151515,81.5274194 3.64090909,81.5274194 4.58484848,81.3935484 C7.55151515,81.2596774 15.2378788,80.7241935 19.6878788,80.5903226 C19.6878788,80.5903226 27.5090909,80.5903226 35.6,80.7241935 C48.680303,80.9919355 65.5363636,81.7951613 70.1212121,82.3306452 L70.7954545,82.3306452 L71.469697,82.3306452 C72.1439394,82.1967742 72.9530303,81.7951613 73.4924242,81.2596774 L73.6272727,81.1258065 C75.2454545,79.3854839 76.0545455,78.4483871 76.1893939,78.3145161 L76.3242424,78.1806452 C76.5939394,77.7790323 76.7287879,77.3774194 76.8636364,76.8419355 C77.2681818,76.5741935 77.6727273,76.4403226 77.9424242,76.0387097 C79.0212121,74.9677419 80.2348485,73.4951613 81.1787879,72.4241935 C81.5833333,72.0225806 81.8530303,71.6209677 81.9878788,71.4870968 C83.0666667,70.683871 83.4712121,69.2112903 82.9318182,67.8725806 C82.9318182,67.7387097 82.7969697,67.7387097 82.7969697,67.6048387 L82.2575758,65.7306452 C82.1227273,65.5967742 82.1227273,65.3290323 81.9878788,65.1951613 C82.3924242,64.7935484 82.9318182,64.3919355 83.3363636,63.7225806 C83.4712121,63.5887097 83.4712121,63.4548387 83.6060606,63.3209677 L87.6515152,53.5483871 C88.3257576,52.2096774 88.730303,50.7370968 88.730303,49.2645161 C88.730303,47.5241935 87.7863636,45.9177419 86.1681818,44.8467742 L86.1681818,44.8467742 Z" id="Shape" fill="#FFFFFF"></path>
                    <path d="M34.5212121,7.22903226 C34.5212121,7.22903226 34.9257576,7.76451613 34.5212121,8.43387097 C34.2515152,8.7016129 14.0242424,57.4306452 14.0242424,57.4306452 C14.1590909,57.6983871 14.1590909,58.233871 14.6984848,58.233871 C17.3954545,58.233871 19.2833333,57.6983871 21.980303,57.6983871 C21.980303,57.8322581 22.9242424,57.8322581 22.3848485,58.6354839 L20.6318182,62.6516129 C20.6318182,62.6516129 20.2272727,63.3209677 19.6878788,63.4548387 C19.1484848,63.5887097 11.1924242,63.7225806 6.87727273,64.5258065 C6.33787879,64.6596774 5.93333333,64.5258065 5.52878788,64.2580645 C5.25909091,63.9903226 5.12424242,63.3209677 5.25909091,62.9193548 C5.39393939,62.9193548 30.3409091,4.01612903 30.4757576,3.61451613 C30.7454545,3.07903226 31.15,3.61451613 31.15,3.61451613 L34.5212121,7.22903226" id="Shape" fill="#0060A9"></path>
                    <path d="M40.8590909,13.2532258 C40.8590909,13.2532258 41.1287879,13.5209677 40.9939394,13.9225806 C40.8590909,14.1903226 34.3863636,29.8532258 34.3863636,29.8532258 C34.2515152,30.2548387 34.5212121,30.6564516 35.0606061,30.7903226 C36.0045455,31.1919355 36.2742424,30.5225806 36.5439394,29.7193548 C36.5439394,29.7193548 42.6121212,15.1274194 42.7469697,14.5919355 C43.0166667,14.0564516 43.2863636,13.9225806 43.2863636,13.9225806 L50.0287879,9.90645161 C50.0287879,9.90645161 50.4333333,9.77258065 50.5681818,9.90645161 C50.7030303,10.0403226 50.5681818,10.5758065 50.5681818,10.5758065 C50.5681818,10.5758065 33.5772727,51.6741935 32.2287879,54.3516129 C32.0939394,54.4854839 31.9590909,54.8870968 31.8242424,55.0209677 C31.6893939,55.1548387 31.15,55.1548387 31.15,55.1548387 L26.5651515,55.2887097 C26.0257576,55.1548387 26.1606061,54.7532258 26.430303,54.3516129 L33.4424242,37.35 C33.5772727,37.0822581 33.5772727,36.4129032 32.9030303,36.1451613 C32.0939394,35.8774194 31.6893939,36.2790323 31.5545455,36.8145161 L24.8121212,53.2806452 C24.2727273,54.3516129 24.1378788,55.2887097 23.4636364,55.2887097 L18.2045455,55.4225806 C17.530303,55.4225806 17.6651515,54.7532258 17.6651515,54.4854839 C17.6651515,54.4854839 36.2742424,9.63870968 36.4090909,9.37096774 C36.5439394,8.96935484 36.9484848,9.37096774 36.9484848,9.37096774 L40.8590909,13.2532258" id="Shape" fill="#0060A9"></path>
                    <path d="M49.219697,34.6725806 C49.3545455,34.9403226 49.219697,35.3419355 49.219697,35.3419355 L38.2969697,61.1790323 C37.8924242,61.7145161 37.7575758,62.383871 37.0833333,62.5177419 C32.3636364,62.6516129 28.0484848,62.6516129 23.3287879,63.0532258 C22.9242424,62.9193548 22.9242424,62.6516129 23.1939394,61.8483871 C23.1939394,61.8483871 24.6772727,58.5016129 24.8121212,58.1 C25.0818182,57.4306452 25.7560606,57.4306452 25.7560606,57.4306452 L33.1727273,57.1629032 L33.7121212,56.8951613 C33.7121212,56.8951613 45.3090909,29.3177419 45.5787879,29.05 C45.7136364,28.7822581 46.1181818,28.7822581 46.2530303,28.916129 C46.2530303,29.05 49.0848485,34.4048387 49.219697,34.6725806" id="Shape" fill="#0060A9"></path>
                    <path d="M59.0636364,38.5548387 C59.0636364,38.5548387 59.3333333,38.6887097 59.4681818,38.9564516 C59.6030303,39.2241935 60.8166667,41.633871 60.8166667,41.633871 C61.4909091,41.9016129 63.6484848,40.6967742 64.0530303,40.5629032 C64.4575758,40.4290323 64.8621212,40.5629032 64.8621212,40.5629032 L70.6606061,42.4370968 C71.3348485,42.7048387 71.7393939,43.6419355 71.469697,44.3112903 L63.7833333,61.7145161 C63.7833333,61.7145161 63.6484848,62.5177419 62.9742424,62.5177419 L57.7151515,62.5177419 C57.3106061,62.383871 57.4454545,61.7145161 57.580303,61.3129032 L63.5136364,47.9258065 C63.7833333,47.5241935 64.0530303,46.3193548 63.2439394,45.9177419 C62.1651515,45.3822581 61.7606061,46.5870968 61.7606061,46.5870968 L55.0181818,61.9822581 C55.0181818,61.9822581 54.7484848,62.383871 54.2090909,62.5177419 L49.4893939,62.5177419 C48.8151515,62.25 49.0848485,61.8483871 49.3545455,61.1790323 L55.9621212,45.516129 C56.2318182,44.8467742 56.0969697,44.3112903 55.5575758,44.0435484 C54.6136364,43.6419355 53.9393939,44.8467742 53.9393939,44.8467742 L47.3318182,60.7774194 C46.7924242,61.7145161 46.6575758,62.5177419 45.9833333,62.5177419 C44.230303,62.7854839 42.8818182,62.5177419 40.9939394,62.5177419 C40.4545455,62.383871 40.319697,61.9822581 40.4545455,61.4467742 L50.8378788,37.216129 C51.1075758,36.5467742 52.1863636,36.4129032 52.8606061,36.6806452 L59.0636364,38.5548387" id="Shape" fill="#0060A9"></path>
                    <path d="M84.6848485,47.2564516 C82.1227273,46.1854839 79.4257576,45.3822581 76.7287879,44.4451613 C75.1106061,43.9096774 73.7621212,44.8467742 72.9530303,46.1854839 L67.2893939,59.4387097 C67.019697,60.1080645 66.480303,61.0451613 66.75,61.8483871 C67.1545455,62.383871 67.4242424,62.7854839 68.6378788,62.9193548 L74.8409091,63.1870968 C74.8409091,63.1870968 75.1106061,63.1870968 75.2454545,63.3209677 C75.380303,63.4548387 75.380303,63.7225806 75.380303,63.7225806 L76.0545455,68.1403226 L76.0545455,68.4080645 C75.919697,68.5419355 75.919697,68.5419355 75.919697,68.6758065 C75.65,69.0774194 75.380303,69.3451613 75.1106061,69.6129032 C74.9757576,69.7467742 74.8409091,69.8806452 74.7060606,70.0145161 C74.4363636,70.1483871 74.0318182,70.0145161 74.0318182,70.0145161 L67.4242424,69.7467742 L48.4106061,69.4790323 L35.7348485,69.6129032 L24.2727273,70.416129 L13.7545455,71.4870968 C13.7545455,71.4870968 7.41666667,72.5580645 7.01212121,72.6919355 C6.60757576,72.8258065 6.74242424,73.3612903 7.01212121,73.3612903 C7.28181818,73.3612903 17.9348485,72.5580645 23.7333333,72.4241935 C23.7333333,72.4241935 31.5545455,72.4241935 39.780303,72.5580645 C53.2651515,72.8258065 70.3909091,73.6290323 74.8409091,74.0306452 C75.1106061,74.0306452 75.2454545,74.1645161 75.5151515,74.0306452 C75.7848485,74.0306452 75.919697,73.7629032 76.0545455,73.6290323 C77.6727273,72.0225806 80.2348485,69.0774194 80.369697,68.9435484 C80.6393939,68.8096774 80.5045455,68.4080645 80.5045455,68.4080645 C79.6954545,66.6677419 79.0212121,65.3290323 78.3469697,63.5887097 C78.3469697,63.4548387 78.2121212,63.3209677 78.3469697,63.3209677 C78.3469697,63.3209677 78.4818182,63.1870968 78.6166667,63.1870968 C79.5606061,63.1870968 80.5045455,63.0532258 81.0439394,61.9822581 L85.2242424,52.2096774 C85.7636364,51.2725806 86.0333333,50.2016129 86.0333333,49.1306452 C85.7636364,48.4612903 85.3590909,47.6580645 84.6848485,47.2564516 L84.6848485,47.2564516 Z M75.7848485,58.6354839 C75.65,58.3677419 75.65,58.233871 75.65,58.233871 C75.380303,57.966129 74.4363636,58.3677419 74.3015152,58.6354839 C74.3015152,58.7693548 74.4363636,59.3048387 74.4363636,59.3048387 C74.0318182,59.0370968 73.7621212,58.5016129 73.8969697,58.1 L77.1333333,50.3354839 C77.2681818,50.0677419 77.8075758,49.666129 78.4818182,49.8 C79.2909091,50.0677419 79.2909091,50.8709677 79.2909091,50.8709677 C78.0772727,53.5483871 77.2681818,55.9580645 75.7848485,58.6354839 L75.7848485,58.6354839 Z" id="Shape" fill="#0060A9"></path>
                    <path d="M73.6272727,75.7709677 C72.9530303,75.6370968 63.1090909,75.1016129 63.1090909,75.1016129 L44.0954545,74.9677419 L31.419697,75.1016129 L20.0924242,75.6370968 L9.57424242,76.7080645 C9.57424242,76.7080645 3.23636364,77.7790323 2.83181818,77.9129032 C2.42727273,78.0467742 2.56212121,78.5822581 2.83181818,78.5822581 C3.10151515,78.5822581 13.7545455,77.7790323 19.5530303,77.7790323 C19.5530303,77.7790323 27.3742424,77.7790323 35.6,77.9129032 C49.0848485,78.1806452 65.9409091,78.983871 70.2560606,79.5193548 L70.7954545,79.5193548 C71.0651515,79.5193548 71.2,79.2516129 71.3348485,79.1177419 C72.9530303,77.3774194 73.7621212,76.5741935 73.8969697,76.3064516 C74.0318182,76.3064516 74.3015152,75.9048387 73.6272727,75.7709677" id="Shape" fill="#0060A9"></path>
                </g>
            </g>
        </g>
    </g>
</svg>