<?xml version="1.0" encoding="utf-8"?>
<!-- Generator: Adobe Illustrator 18.1.0, SVG Export Plug-In . SVG Version: 6.00 Build 0)  -->
<svg version="1.1" id="Layer_1" xmlns="http://www.w3.org/2000/svg" xmlns:xlink="http://www.w3.org/1999/xlink" x="0px" y="0px"
	 viewBox="0 0 600 600" enable-background="new 0 0 600 600" xml:space="preserve">
<g>
	<path fill="#FFFFFF" d="M280,577.7c-86.2,0-162.3-44.3-206.8-111.3l-8.2,4.2c46.1,69.9,125.3,116.3,215,116.3
		c73.8,0,140.6-31.4,187.6-81.5c-2.2-2.1-4.5-4.1-7-6C415.3,547.6,351.1,577.7,280,577.7z"/>
	<path fill="#FFFFFF" d="M498.7,446.5c-0.1,6-0.1,12.2-0.1,18.5c18.6-29.9,31.3-63.9,36.3-100.3l-9.2-0.9
		C521.7,393.2,512.3,421.2,498.7,446.5z"/>
	<path fill="#FFFFFF" d="M31.9,329.6C31.9,192.9,143.3,81.5,280,81.5c21.2,0,41.8,2.7,61.5,7.7l-0.2-2.1l32.7,9.2l13.2,0.5l0.9-0.6
		C355.2,80.9,318.6,72.3,280,72.3c-141.7,0-257.3,115.6-257.3,257.3c0,47.4,12.9,91.9,35.5,130.1l6.1-7.8
		C43.6,415.7,31.9,374,31.9,329.6z"/>
	<path fill="#FFFFFF" d="M527.2,308l9.8,8c-0.3-5.4-0.8-10.8-1.4-16.1l-8.7,5C527,305.9,527.1,306.9,527.2,308z"/>
	<path fill="#FFFFFF" d="M520,266.8l10.7,4.8c-1.6-7-3.6-13.9-5.7-20.7l-6.5,10.1C519,262.9,519.5,264.8,520,266.8z"/>
	<path fill="#FFFFFF" d="M537,341.5c0.1-1.3,0.1-2.6,0.2-3.9l-4.3,0L537,341.5z"/>
	<path d="M235.5,531.9l-6.8-1.6l-1.9,8.2l7.2,1.7c1.1,0.3,1.9,0.2,2.3,0c0.4-0.3,0.8-1,1.1-2.3l0.4-1.7c0.4-1.7,0.5-2.7,0.2-3.2
		C237.7,532.6,236.9,532.3,235.5,531.9z"/>
	<path d="M69.5,263.4c0.3-1.1,0.4-1.8,0.1-2.3c-0.3-0.4-1-0.9-2.2-1.2l-1.6-0.5c-1.6-0.5-2.7-0.7-3.1-0.5c-0.5,0.2-0.9,0.9-1.3,2.3
		l-2.1,6.7l8,2.6L69.5,263.4z"/>
	<path d="M191.3,517.1l-4.7-2.1c-1.1-0.5-1.9-0.5-2.5-0.2c-0.6,0.3-1.2,1.2-1.9,2.7l-6.2,13.8c-0.6,1.4-0.9,2.4-0.8,2.9
		c0.2,0.9,0.9,1.6,2.3,2.2l4.2,1.9c1.3,0.6,2.2,0.7,2.8,0.4c0.6-0.3,1.2-1.2,1.9-2.7l6.2-13.8c0.6-1.4,0.9-2.4,0.8-2.9
		C193.4,518.4,192.6,517.7,191.3,517.1z"/>
	<path d="M373.6,518.4c-0.6-1.4-1.2-2.2-1.6-2.6c-0.8-0.4-1.8-0.4-3.1,0.3l-5.7,2.5l9.4,21.2l5.7-2.5c1.3-0.6,2-1.2,2.2-1.8
		c0.2-0.6-0.1-1.7-0.7-3.3L373.6,518.4z"/>
	<polygon points="407.3,509.8 414.7,504.1 404.6,498.4 	"/>
	<polygon points="270.4,550.3 279.7,550.7 275.7,539.8 	"/>
	<path d="M83.1,220.1l13,7.7c1.3,0.8,2.2,1.2,2.8,1.2c0.9-0.1,1.7-0.8,2.4-2l2.4-4c0.7-1.2,1-2.1,0.8-2.8c-0.2-0.6-1-1.4-2.5-2.2
		l-13-7.7c-1.3-0.8-2.2-1.2-2.8-1.2c-0.9,0.1-1.7,0.8-2.4,2l-2.6,4.4c-0.6,1-0.8,1.8-0.5,2.4C80.9,218.5,81.7,219.3,83.1,220.1z"/>
	<path fill="#FFFFFF" d="M106.5,369.2L103,369l3-2.1c-2.6-12-4-24.5-4-37.3c0-89.7,67-164.3,153.6-176.3l16.7-11.9
		c-100.2,4.1-180.6,87-180.6,188.2c0,24.6,4.8,48.1,13.4,69.7l7.5-9.6C110.1,383,108.1,376.2,106.5,369.2z"/>
	<path fill="#FFFFFF" d="M280,507.6c-59,0-111.4-28.9-143.8-73.3l-9.4,4.8C161,486.8,217,518,280,518c48.5,0,92.9-18.5,126.4-48.9
		c-3.4-1.5-6.9-3-10.6-4.5C364.6,491.3,324.1,507.6,280,507.6z"/>
	<path fill="#ED1C2E" d="M102,329.6c0,12.8,1.4,25.3,4,37.3l23.6-16.5l-21-1.8l32.8-18.8l-8.8-4.7l17.8-9.7
		c-4.4-6.8-7.8-14.2-10.7-21.7l-2-5.2l8.6-19.6l6.2-6.3l4.8-5.5l36.7-13.1l5.3-4.7l-21.2,4.5l69-64.8l3.1-3.3l-33.6,5.3l38.9-27.7
		C169,165.3,102,239.9,102,329.6z"/>
	<path fill="#ED1C2E" d="M126.7,371.3l1-0.9l-21.3-1.2c1.6,7,3.6,13.8,6,20.4L126.7,371.3z"/>
	<path fill="#ED1C2E" d="M280,507.6c44.2,0,84.6-16.2,115.8-43c-1-0.4-2-0.8-3-1.3c-2.2-0.9-1.3-9.9-3.6-10.6
		c-2.3-0.6-56.3,32.9-59.7,34.8l25.4-55.3l-12.2,11.8l0.7-21.8l-35.5,34l4.5-38.2l-104,69.2l48.5-77.9l-99.8,31.4l23.1-29
		l-44.1,22.6C168.6,478.6,221,507.6,280,507.6z"/>
	<path fill="#FFFFFF" d="M188,118.6l8.4,22.9c0.7,2.1,0.8,3.9,0.4,5.3l8.1-3c-1.2-0.8-2.3-2.2-3.1-4.3l-8-21.6l22.8,21.6l15.7-5.8
		L222.2,106c-0.7-2.2-0.9-3.9-0.4-5.3l-8.1,3c1.2,0.8,2.3,2.2,3.1,4.3l7.8,21.1l-22-21.3l-17.7,6.5
		C186.1,115.1,187.2,116.5,188,118.6z"/>
	<path fill="#FFFFFF" d="M160.2,152.5l4.4,6.7c1.2,1.9,1.7,3.6,1.6,5.1l13.4-8.8c-1.4-0.5-2.7-1.6-4-3.5l-4.4-6.7l-0.5-19.7
		c-0.1-1.8-0.1-3-0.1-3.7c0.1-0.7,0.3-1.4,0.6-2.2l-7.8,5.1c0.3,0.4,0.5,0.6,0.6,0.8c0.7,1,1,2.3,1,3.9l0.3,10.8l-9.5-4.4
		c-1.2-0.6-2.2-1.1-2.7-1.5c-0.6-0.4-1.1-1.1-1.7-1.9l-14.6,9.5c1.5,0.4,3.6,1.2,6.2,2.5L160.2,152.5z"/>
	<path fill="#FFFFFF" d="M117.1,195.4c1.3,1.3,2.4,2.2,3.3,2.7c0.9,0.5,2,0.8,3.2,0.8c2.4,0.2,4.7-0.8,6.7-2.8l13.2-13.3
		c2-2.1,2.9-4.3,2.7-6.7c-0.1-1.2-0.4-2.3-0.9-3.2c-0.5-0.9-1.4-2-2.7-3.3l-13.9-13.8c-1.6-1.6-2.4-3.2-2.6-4.6l-6.1,6.1
		c1.5,0.2,3,1,4.7,2.6l14,13.9c1.2,1.2,1.8,2.1,1.9,2.8c0.1,0.7-0.4,1.5-1.4,2.5l-7.5,7.6c-1,1.1-2,1.5-2.8,1.4
		c-0.6-0.2-1.4-0.8-2.4-1.8l-14-13.9c-1.6-1.6-2.4-3.2-2.6-4.6L98.5,179c1.5,0.2,3,1.1,4.7,2.6L117.1,195.4z"/>
	<path fill="#FFFFFF" d="M76.5,231.5l12.7,7.6c2.9,1.7,5.3,2.4,7.1,2c1.1-0.2,2.2-0.7,3.3-1.5c1.1-0.8,2-1.8,2.6-2.9l10.3-17.3
		c0.7-1.2,1.1-2.4,1.3-3.7c0.2-1.3,0.1-2.5-0.2-3.6c-0.5-1.8-2.2-3.6-5.1-5.3L95.8,199c-2.9-1.7-5.3-2.4-7.1-2
		c-1.1,0.2-2.2,0.7-3.3,1.5c-1.1,0.8-2,1.8-2.6,2.9l-10.3,17.3c-0.7,1.2-1.1,2.4-1.3,3.7c-0.2,1.3-0.1,2.5,0.2,3.6
		C71.9,228,73.6,229.7,76.5,231.5z M81.1,215.5l2.6-4.4c0.7-1.3,1.5-2,2.4-2c0.6,0,1.5,0.4,2.8,1.2l13,7.7c1.5,0.9,2.3,1.6,2.5,2.2
		c0.2,0.6,0,1.5-0.8,2.8l-2.4,4c-0.7,1.3-1.5,2-2.4,2c-0.6,0-1.5-0.4-2.8-1.2l-13-7.7c-1.4-0.8-2.2-1.5-2.5-2.2
		C80.3,217.3,80.5,216.5,81.1,215.5z"/>
	<path fill="#FFFFFF" d="M77.8,287.6c2.1,0.7,3.6,1.7,4.4,2.9l4.9-15.3c-1.4,0.5-3.2,0.4-5.3-0.2l-9.2-2.9l1.2-3.9l15.9-1.3
		l4.7-14.5c-1.6,0.5-3.3,0.9-5.3,1.1l-11,1.4c0.1-0.4,0.3-0.6,0.3-0.9c0.5-1.6,0.3-2.9-0.7-4c-0.6-0.6-1.6-1.1-3.1-1.6l-7.1-2.3
		c-2.3-0.7-4.3-0.6-5.9,0.4c-0.8,0.5-1.5,1.2-2.1,2.1c-0.5,0.9-1.1,2.2-1.7,4.1L49.3,280c1.4-0.5,3.2-0.4,5.3,0.2L77.8,287.6z
		 M61.4,261.2c0.4-1.3,0.9-2.1,1.3-2.3c0.5-0.2,1.5,0,3.1,0.5l1.6,0.5c1.2,0.4,1.9,0.8,2.2,1.2c0.3,0.4,0.2,1.2-0.1,2.3l-2.3,7
		l-8-2.6L61.4,261.2z"/>
	<path fill="#FFFFFF" d="M247.8,529.3c-0.9-0.5-2.3-0.9-4.2-1.4l-27.7-6.5c0.6,1.4,0.7,3.1,0.2,5.3l-5.6,23.7
		c-0.6,2.1-1.4,3.7-2.6,4.7l15.6,3.7c-0.6-1.3-0.7-3.1-0.2-5.3l2.2-9.4l4,0.9l2.6,15.8l14.8,3.5c-0.6-1.5-1.1-3.2-1.5-5.2l-2.3-10.9
		c0.4,0.1,0.7,0.2,0.9,0.3c1.6,0.4,2.9,0.1,3.9-1c0.6-0.6,1-1.7,1.4-3.2l1.7-7.3c0.5-2.4,0.2-4.3-0.9-5.8
		C249.4,530.4,248.7,529.8,247.8,529.3z M237.7,536.2l-0.4,1.7c-0.3,1.2-0.6,2-1.1,2.3c-0.4,0.3-1.2,0.3-2.3,0l-7.2-1.7l1.9-8.2
		l6.8,1.6c1.4,0.3,2.2,0.7,2.4,1.1C238.1,533.5,238.1,534.6,237.7,536.2z"/>
	<path fill="#FFFFFF" d="M203.9,517.3c-0.9-1-2-1.7-3.2-2.3l-18.3-8.2c-1.2-0.5-2.5-0.8-3.9-0.9c-1.3-0.1-2.5,0.2-3.6,0.6
		c-1.7,0.7-3.3,2.6-4.7,5.7l-6.1,13.5c-1.4,3.1-1.7,5.5-1.1,7.3c0.3,1.1,1,2.1,1.9,3.1c0.9,1,2,1.7,3.2,2.3l18.3,8.2
		c1.2,0.6,2.5,0.9,3.9,0.9c1.3,0.1,2.5-0.2,3.6-0.6c1.7-0.7,3.3-2.6,4.7-5.7l6.1-13.5c1.4-3.1,1.7-5.5,1.1-7.3
		C205.5,519.3,204.8,518.3,203.9,517.3z M192.7,522.2l-6.2,13.8c-0.7,1.5-1.3,2.5-1.9,2.7c-0.6,0.3-1.5,0.1-2.8-0.4l-4.2-1.9
		c-1.3-0.6-2.1-1.3-2.3-2.2c-0.1-0.6,0.2-1.6,0.8-2.9l6.2-13.8c0.7-1.5,1.3-2.4,1.9-2.7c0.6-0.3,1.4-0.3,2.5,0.2l4.7,2.1
		c1.3,0.6,2.1,1.3,2.3,2.2C193.6,519.8,193.4,520.8,192.7,522.2z"/>
	<path fill="#FFFFFF" d="M170.5,499.9l-6.8-5.3c0,1.5-0.7,3.1-2,4.9l-13.9,17.7l6.6-29.9l-14.8-11.6c0,1.5-0.7,3.1-2,4.9l-15.1,19.2
		c-1.4,1.7-2.9,2.7-4.3,3.1l6.8,5.3c0-1.5,0.7-3.1,2-4.9l14.2-18.1l-6.5,30.8l13.2,10.3l18.2-23.2
		C167.7,501.3,169.1,500.2,170.5,499.9z"/>
	<path fill="#FFFFFF" d="M286.9,531.3l-15.3-0.6c0.6,0.6,1,1.3,1.3,2.1l-13.2,25.6c-1.3,2.6-2.8,4.7-4.4,6.4l9.7,0.4
		c-0.4-0.9-0.6-1.7-0.6-2.3c0-0.7,0.3-1.5,0.7-2.4l2.3-4.7l14.2,0.5l1.4,3.8c0.5,1.3,0.8,2.5,0.7,3.4c0,0.9-0.3,1.6-1,2.3l17.4,0.7
		c-1.1-1.3-1.9-2.7-2.5-4.2L286.9,531.3z M270.4,550.3l5.2-10.5l4,10.9L270.4,550.3z"/>
	<path fill="#FFFFFF" d="M385.7,513.2c-1.4-3.1-2.9-5-4.7-5.7c-1-0.5-2.2-0.7-3.6-0.7c-1.4,0-2.6,0.3-3.9,0.9l-26.1,11.5
		c1.3,0.7,2.4,2.1,3.4,4.1l9.8,22.3c0.8,2.1,1.1,3.8,0.8,5.3l26.1-11.5c1.2-0.5,2.3-1.3,3.2-2.3c0.9-1,1.6-2,1.9-3.1
		c0.6-1.8,0.3-4.2-1.1-7.3L385.7,513.2z M380.5,535.5c-0.2,0.6-0.9,1.2-2.2,1.8l-5.7,2.5l-9.4-21.2l5.7-2.5c1.3-0.6,2.4-0.7,3.1-0.3
		c0.5,0.4,1,1.2,1.6,2.6l6.1,13.8C380.4,533.7,380.6,534.8,380.5,535.5z"/>
	<path fill="#FFFFFF" d="M407.8,484.6l-12.1,9.4c0.8,0.1,1.6,0.4,2.4,0.8l6.3,28.1c0.6,2.8,0.9,5.4,0.7,7.7l7.7-6
		c-0.9-0.5-1.6-0.9-1.9-1.4c-0.4-0.5-0.7-1.3-1-2.3l-1.2-5.1l11.2-8.7l3.5,2c1.3,0.7,2.2,1.4,2.7,2.1c0.5,0.7,0.8,1.5,0.7,2.4
		l13.8-10.7c-1.7-0.3-3.2-0.8-4.6-1.6L407.8,484.6z M407.3,509.8l-2.8-11.4l10.1,5.7L407.3,509.8z"/>
	<path fill="#FFFFFF" d="M341.6,521.7l-8.4,1.9c1.1,0.9,2,2.5,2.5,4.7l5,21.9l-19.1-23.9l-18.4,4.2c1.1,1,2,2.5,2.5,4.7l5.4,23.8
		c0.4,2.2,0.3,3.9-0.3,5.3l8.4-1.9c-1.1-0.9-2-2.5-2.5-4.7l-5.1-22.5l19.8,24.4l16.3-3.7l-6.5-28.8C340.9,524.8,341,523,341.6,521.7
		z"/>
	<path fill="#ED1C2E" d="M122.7,471.4c0-5.1-4.2-9.3-9.3-9.3c-5.1,0-9.3,4.2-9.3,9.3c0,5.1,4.2,9.3,9.3,9.3
		C118.6,480.6,122.7,476.5,122.7,471.4z"/>
	<path fill="#ED1C2E" d="M254.8,118.7c5.1,0,9.3-4.2,9.3-9.3c0-5.1-4.2-9.3-9.3-9.3c-5.1,0-9.3,4.2-9.3,9.3
		C245.5,114.6,249.7,118.7,254.8,118.7z"/>
	<path fill="#ED1C2E" d="M70.9,311.3c0-5.1-4.2-9.3-9.3-9.3c-5.1,0-9.3,4.2-9.3,9.3c0,5.1,4.2,9.3,9.3,9.3
		C66.7,320.6,70.9,316.5,70.9,311.3z"/>
	<path d="M576.4,163.2c-0.7-2.4-1.4-4.5-2.4-6.8c-1.1-2.2-2.3-4.3-3.7-6.4c-2-2.7-4.2-5.2-6.5-7.7l-13.8-5.1l-14.7-14.7l-0.2,0
		L530,72.2l-1.5-3.9l-0.9-2.4c-3.1-9-5.2-18.4-8.4-27.4c-0.9-2.2-1.8-4.4-2.9-6.5c-1.3-2.2-2.5-4.2-4.1-6.3l-3.6-3.8l-4.4-3.3
		l-5-2.5l-5.6-1.7l-6.1-1l-7.6-0.4c-4.4,0.9-8.6,2-12.9,3.4c-3.4,1.3-6.5,2.7-9.6,4.6c-4.2,2.7-7.6,5.7-11.1,9.2
		c-4.5,4.7-8.9,9.6-13.4,14.3l-40.3,48.8l-4.6,2.8l-0.9,0.6L374,96.3l-32.7-9.2l0.2,2.1c-19.7-5.1-40.3-7.7-61.5-7.7
		c-136.7,0-248.1,111.5-248.1,248.1c0,44.4,11.8,86.1,32.3,122.2l-6.1,7.8l-18.6,24l25.5-13l8.2-4.2
		c44.5,67,120.6,111.3,206.8,111.3c71.1,0,135.3-30.2,180.6-78.3c2.5,2,4.8,4,7,6c9.3,8.8,16,18.6,20.9,30.3l10.7-37.7
		c-0.2-11.7-0.5-22.6-0.5-33c-0.1-6.3,0-12.5,0.1-18.5c13.6-25.3,22.9-53.2,27-82.8l9.2,0.9l29.6,3.1L537,341.5l-4.2-4l4.3,0
		l26.6,0.2l-26.9-21.8l-9.8-8c-0.1-1.1-0.2-2.1-0.3-3.2l8.7-5l10.2-5.9l-8.8-5.6l18.6-5.6l-24.9-11.2l-10.7-4.8
		c-0.5-1.9-1-3.9-1.6-5.8l6.5-10.1l3.8-5.8l25.2-31.5c3.2-3.2,6.3-6.5,9.3-10c3.3-4.1,6.2-8.1,8.7-12.7c1.1-2.2,2.1-4.3,3-6.6
		c0.8-2.3,1.4-4.5,1.9-6.9c0.4-2.4,0.5-4.7,0.6-7.1C577.2,167.8,576.9,165.6,576.4,163.2z M254.8,100.2c5.1,0,9.3,4.2,9.3,9.3
		c0,5.1-4.2,9.3-9.3,9.3c-5.1,0-9.3-4.2-9.3-9.3C245.5,104.4,249.7,100.2,254.8,100.2z M202.5,107.8l22,21.3l-7.8-21.1
		c-0.8-2.1-1.9-3.5-3.1-4.3l8.1-3c-0.4,1.4-0.3,3.2,0.4,5.3l10.2,27.7l-15.7,5.8l-22.8-21.6l8,21.6c0.8,2.1,1.9,3.5,3.1,4.3l-8.1,3
		c0.4-1.4,0.3-3.2-0.4-5.3l-8.4-22.9c-0.8-2.1-1.9-3.5-3.1-4.3L202.5,107.8z M151.5,132.7c0.5,0.8,1.1,1.4,1.7,1.9
		c0.6,0.4,1.5,1,2.7,1.5l9.5,4.4l-0.3-10.8c0-1.6-0.4-2.9-1-3.9c-0.1-0.2-0.3-0.5-0.6-0.8l7.8-5.1c-0.3,0.8-0.5,1.5-0.6,2.2
		c-0.1,0.7,0,1.9,0.1,3.7l0.5,19.7l4.4,6.7c1.3,1.9,2.6,3,4,3.5l-13.4,8.8c0.1-1.5-0.4-3.1-1.6-5.1l-4.4-6.7l-17.1-7.8
		c-2.6-1.3-4.7-2.1-6.2-2.5L151.5,132.7z M109.9,167.6c0.2,1.4,1.1,3,2.6,4.6l14,13.9c1.1,1.1,1.9,1.7,2.4,1.8
		c0.9,0.1,1.8-0.3,2.8-1.4l7.5-7.6c1-1,1.5-1.8,1.4-2.5c-0.1-0.7-0.7-1.6-1.9-2.8l-14-13.9c-1.6-1.5-3.2-2.4-4.7-2.6l6.1-6.1
		c0.2,1.5,1.1,3,2.6,4.6l13.9,13.8c1.3,1.3,2.2,2.4,2.7,3.3c0.5,0.9,0.8,2,0.9,3.2c0.2,2.4-0.7,4.7-2.7,6.7l-13.2,13.3
		c-2.1,2-4.3,2.9-6.7,2.8c-1.2-0.1-2.3-0.3-3.2-0.8c-0.9-0.5-2-1.4-3.3-2.7l-13.9-13.8c-1.6-1.5-3.2-2.4-4.7-2.6L109.9,167.6z
		 M71.2,222.5c0.2-1.3,0.6-2.6,1.3-3.7l10.3-17.3c0.7-1.2,1.6-2.1,2.6-2.9c1.1-0.8,2.2-1.3,3.3-1.5c1.8-0.4,4.2,0.3,7.1,2l12.7,7.6
		c2.9,1.7,4.6,3.5,5.1,5.3c0.3,1.1,0.4,2.3,0.2,3.6c-0.2,1.3-0.7,2.6-1.3,3.7l-10.3,17.3c-0.7,1.2-1.6,2.1-2.6,2.9
		c-1.1,0.8-2.2,1.3-3.3,1.5c-1.8,0.4-4.2-0.3-7.1-2l-12.7-7.6c-2.9-1.7-4.6-3.5-5.1-5.3C71,225.1,70.9,223.8,71.2,222.5z M49.3,280
		l8.7-27.1c0.6-1.9,1.2-3.2,1.7-4.1c0.5-0.9,1.2-1.6,2.1-2.1c1.6-1,3.6-1.1,5.9-0.4l7.1,2.3c1.5,0.5,2.5,1,3.1,1.6
		c1,1.1,1.2,2.4,0.7,4c-0.1,0.2-0.2,0.5-0.3,0.9l11-1.4c2-0.2,3.7-0.6,5.3-1.1L89.8,267l-15.9,1.3l-1.2,3.9l9.2,2.9
		c2.2,0.6,3.9,0.7,5.3,0.2l-4.9,15.3c-0.9-1.2-2.3-2.2-4.4-2.9l-23.2-7.5C52.5,279.6,50.7,279.5,49.3,280z M52.4,311.3
		c0-5.1,4.2-9.3,9.3-9.3c5.1,0,9.3,4.2,9.3,9.3c0,5.1-4.2,9.3-9.3,9.3C56.5,320.6,52.4,316.5,52.4,311.3z M91.6,329.6
		c0-101.2,80.5-184.1,180.6-188.2l-16.7,11.9l-38.9,27.7l33.6-5.3l-3.1,3.3l-69,64.8l21.2-4.5l-5.3,4.7l-36.7,13.1l-4.8,5.5
		l-6.2,6.3l-8.6,19.6l2,5.2c2.9,7.6,6.3,14.9,10.7,21.7l-17.8,9.7l8.8,4.7l-32.8,18.8l21,1.8L106,366.9l-3,2.1l3.5,0.2l21.3,1.2
		l-1,0.9l-14.3,18.4l-7.5,9.6C96.4,377.7,91.6,354.2,91.6,329.6z M104.2,471.4c0-5.1,4.2-9.3,9.3-9.3c5.1,0,9.3,4.2,9.3,9.3
		c0,5.1-4.2,9.3-9.3,9.3C108.4,480.6,104.2,476.5,104.2,471.4z M134.8,515.8l6.5-30.8l-14.2,18.1c-1.3,1.8-2,3.4-2,4.9l-6.8-5.3
		c1.5-0.4,2.9-1.4,4.3-3.1l15.1-19.2c1.3-1.8,2-3.4,2-4.9l14.8,11.6l-6.6,29.9l13.9-17.7c1.3-1.8,2-3.5,2-4.9l6.8,5.3
		c-1.4,0.3-2.8,1.4-4.3,3.1L148,526.2L134.8,515.8z M204.7,527.7l-6.1,13.5c-1.4,3.1-3,5-4.7,5.7c-1,0.5-2.2,0.7-3.6,0.6
		c-1.4-0.1-2.6-0.4-3.9-0.9l-18.3-8.2c-1.2-0.6-2.3-1.3-3.2-2.3c-0.9-1-1.6-2-1.9-3.1c-0.6-1.8-0.2-4.2,1.1-7.3l6.1-13.5
		c1.4-3.1,2.9-5,4.7-5.7c1-0.5,2.2-0.7,3.6-0.6c1.4,0,2.6,0.3,3.9,0.9l18.3,8.2c1.2,0.5,2.3,1.3,3.2,2.3c0.9,1,1.6,2,1.9,3.1
		C206.4,522.2,206,524.6,204.7,527.7z M250.9,537l-1.7,7.3c-0.4,1.5-0.8,2.6-1.4,3.2c-1,1-2.3,1.4-3.9,1c-0.2-0.1-0.5-0.1-0.9-0.3
		l2.3,10.9c0.4,1.9,0.9,3.7,1.5,5.2l-14.8-3.5l-2.6-15.8l-4-0.9l-2.2,9.4c-0.4,2.2-0.4,4,0.2,5.3l-15.6-3.7c1.1-1,2-2.5,2.6-4.7
		l5.6-23.7c0.4-2.2,0.4-3.9-0.2-5.3l27.7,6.5c1.9,0.4,3.3,0.9,4.2,1.4c0.9,0.5,1.7,1.1,2.2,1.9C251.1,532.7,251.4,534.7,250.9,537z
		 M283,565.8c0.6-0.7,0.9-1.4,1-2.3c0-0.9-0.2-2.1-0.7-3.4l-1.4-3.8l-14.2-0.5l-2.3,4.7c-0.4,0.9-0.7,1.7-0.7,2.4
		c0,0.6,0.2,1.3,0.6,2.3l-9.7-0.4c1.6-1.6,3-3.8,4.4-6.4l13.2-25.6c-0.3-0.8-0.8-1.5-1.3-2.1l15.3,0.6l11,31
		c0.6,1.5,1.4,2.9,2.5,4.2L283,565.8z M331.5,559.5l-19.8-24.4l5.1,22.5c0.6,2.2,1.4,3.7,2.5,4.7l-8.4,1.9c0.6-1.4,0.7-3.1,0.3-5.3
		l-5.4-23.8c-0.6-2.1-1.4-3.7-2.5-4.7l18.4-4.2l19.1,23.9l-5-21.9c-0.6-2.2-1.4-3.8-2.5-4.7l8.4-1.9c-0.6,1.3-0.7,3.1-0.3,5.3
		l6.5,28.8L331.5,559.5z M392.8,534c-0.3,1.1-1,2.1-1.9,3.1c-0.9,1-2,1.7-3.2,2.3l-26.1,11.5c0.3-1.5,0.1-3.2-0.8-5.3l-9.8-22.3
		c-1-2-2.1-3.4-3.4-4.1l26.1-11.5c1.2-0.5,2.5-0.8,3.9-0.9c1.3,0,2.5,0.2,3.6,0.7c1.7,0.7,3.3,2.6,4.7,5.7l6,13.5
		C393,529.8,393.4,532.2,392.8,534z M426.9,513.5c0-0.9-0.2-1.7-0.7-2.4c-0.6-0.7-1.5-1.5-2.7-2.1l-3.5-2l-11.2,8.7l1.2,5.1
		c0.2,1,0.6,1.7,1,2.3c0.4,0.5,1,0.9,1.9,1.4l-7.7,6c0.2-2.3-0.1-4.8-0.7-7.7l-6.3-28.1c-0.8-0.4-1.5-0.7-2.4-0.8l12.1-9.4
		l28.3,16.7c1.4,0.8,3,1.3,4.6,1.6L426.9,513.5z M280,518c-63,0-118.9-31.2-153.2-78.9l9.4-4.8l44.1-22.6l-23.1,29l99.8-31.4
		l-48.5,77.9l104-69.2l-4.5,38.2l35.5-34l-0.7,21.8l12.2-11.8l-25.4,55.3c3.4-1.9,57.5-35.5,59.7-34.8c2.3,0.6,1.4,9.7,3.6,10.6
		c1,0.4,2,0.8,3,1.3c3.6,1.5,7.2,3,10.6,4.5C372.9,499.4,328.5,518,280,518z M545.9,206.4L520,238.8l-13.3,20.4l-1.7,12.6l19.8,8.9
		l-13.7,4.1l13.8,8.7l-19.1,11l27.3,22.2l-27.4-0.2l28.6,27.3l-11.5-1.2l-20.2,4.1c-23.2,36.5-21.1,76-18.5,149.9
		c-11.3-16.8-29.1-30.6-48.9-40.9c-11.1-5.8-22.9-10.6-34.5-14.2l-5.3-14.6l-39.9,20.6l20.8-60.9l-21.9,21.2l0.7-21.1l-32.4,31.2
		l-1.4-24.6l-79.7,52l30.4-62.1l-84.6,26.6l29.2-36.6L86.8,446.4l48-67.9l19.5-17.4l-19.5-1.1l25.3-17.7l-16.3-1.4l19.9-11.4
		l-8.4-4.5l12.1-6.6c-7.7-5.5-13.9-18.4-18.1-29.6l6-13.7l5.1-5.1l3.2-3.7l15.2-5.5l20.8-7.3l20.2-18l23.7-26.7L219,219.3l35.8-32.6
		l19.6-10.6l-10.1,0.5l18.4-16.8l-22.6,3.6l55.3-39.4l-12.2-1.2l25.8-4.9l-3.4-5.5l14.9-1.8l13.9-1.9l-0.7-6.9l18.7,5.3l17.8,0.7
		l9.8-6l41.2-49.9C457,35.2,459.8,28.2,481,23.8c31.5,0.1,26.8,22.5,38.5,51l3.1,29.8l2.7,28.7l0.3,13.2l9-0.6l-3.5-12.4l13,12.9
		l13.5,5C573.4,168.2,567.7,185.1,545.9,206.4z"/>
	<path fill="#FFFFFF" d="M544.1,146.5l-13-12.9l3.5,12.4l-9,0.6l-0.3-13.2l-2.7-28.7l-3.1-29.8c-11.7-28.4-7-50.9-38.5-51
		c-21.2,4.3-24,11.4-39.9,27.9l-41.2,49.9l-9.8,6l-17.8-0.7l-18.7-5.3l0.7,6.9l-13.9,1.9l-14.9,1.8l3.4,5.5l-25.8,4.9l12.2,1.2
		L260,163.4l22.6-3.6l-18.4,16.8l10.1-0.5l-19.6,10.6L219,219.3l24.5-10.5l-23.7,26.7l-20.2,18l-20.8,7.3l-15.2,5.5l-3.2,3.7
		l-5.1,5.1l-6,13.7c4.2,11.2,10.4,24.1,18.1,29.6l-12.1,6.6l8.4,4.5l-19.9,11.4l16.3,1.4L134.7,360l19.5,1.1l-19.5,17.4l-48,67.9
		l129.9-63.1l-29.2,36.6l84.6-26.6l-30.4,62.1l79.7-52l1.4,24.6l32.4-31.2l-0.7,21.1l21.9-21.2l-20.8,60.9l39.9-20.6l5.3,14.6
		c11.6,3.6,23.4,8.3,34.5,14.2c19.8,10.4,37.6,24.1,48.9,40.9c-2.6-73.9-4.7-113.4,18.5-149.9l20.2-4.1l11.5,1.2l-28.6-27.3
		l27.4,0.2l-27.3-22.2l19.1-11l-13.8-8.7l13.7-4.1l-19.8-8.9l1.7-12.6l13.3-20.4l25.9-32.3c21.8-21.4,27.5-38.3,11.7-55L544.1,146.5
		z M513.4,90.6l2.8,20l1.9,37.8l-5.4,1.9l-24.5-9.9l10.6,15.7l-12.5,7l-8.3,5.3l-6.8,3.6l-5.3,0.6l-5.7,6.8l3.7-10.4l6.5-12.9
		l8.2-19.9l5.1-20.1l2.6-6.5l6.3,16.8l0.8-34.1l8.8-15.7l4.4,7.7l-1.1,26.8L513.4,90.6z M497.7,34.1l6.3,10.3l-1.1,10.9l-7.2-13.5
		L489.8,30L497.7,34.1z M481.7,29.5l15.7,30.3l-8.4-6.4l-4.3-1.8C473.5,46.8,457.8,32.3,481.7,29.5z M433.8,69.8L449,52.5l17.9-19
		l-0.3,4.9l1,5.8l4.2,4.7l6.8,5.7l1.6,3.2l3.5,0.6l3.1,7.7l1.5,5.8l-8.8-1.4L469.3,70l-8.5,8.8l-10.6,8.3l4.4-15.7l-11.4,14.9
		l-0.4-8l-19.6,18l2.7-8.3l-19.5,17.1L433.8,69.8z M409.1,435.1l3.1-28.9l-28.8,25.1l9.8-44.6l-17.3-1.4l-9.6,10.6l-8.6-10.2
		l-14.1,2.1L332.4,402l-6.9-23.2L284,408.4l9.8-40.5l-74.2,32.2l55.6-58.6l-44.3,27.9l21-23.6L111.2,426l71.9-62.3l-30.5,7.2
		l20.2-18.8l-18.4,3.6l17.4-15.4l-7.7-4l12.5-6.8l-4.8-5.1l6.9-6.1l-6.1-5.1c-9.2-9-15.6-19.3-13.5-26.9c1.8-6.4,8.4-10.5,13.4-16
		l61.6-20l-27.3,2.2l40.9-23.9l-12.7,0.1l31.8-30l-18.6,6.9l35-31.5l18.8-24.1l-10.9,0.7l25.4-19.5l23.1-10.7l-3.3-4.8l20.3-0.9
		l7.9-3.3l20.1,5.2l-55,18.4l1.4,7.7l4.6,4.3l26.3-10.6l-17.1-1l23.5-4l10-3.9l14.6-7.2l-3,6l-11.8,13.5l-9,8.3l0.4,2.7l-5.5,5.2
		l-11.4,12.1l-9.7,7.4l4.9-17.4c0,0-3.1-0.7-7-1.7l-23.8,15.1l-7.1,23.3l24-4.8l-22.5,28.7l-9.1,31.8l21.5-4.4L310.2,276l-21.2,44.6
		l38.2-33.5l-2.7,32.2c14.9-24.1,38.3-49.2,58.7-63.9c-17.1,21-35.6,52.5-44.1,83.1l29.9-22.3l-5.4,46.7
		c12.2-24.7,26.4-46,41.5-65.7c-5,22-7.6,44.6-4.7,68.6l28.5-46.6c-8.4,20.9-12.1,41.2-5.2,59.9l24.9-23.4
		c0.9,25.5-2.1,51.7-7.6,78.5l29.5-45.5l-3,51l0.8,15.3l4,23.3C457.3,460.9,423.9,450.3,409.1,435.1z M520.5,221.8
		c-6.5,8.4-14.9,16.7-18.7,27l-5.5,14.6l-1.5,9.8l8.9,5.4l-10.1,5.9l14.2,9.7l-16.6,6.8l16.7,17.1l-17.8-6.2l16.4,34.1l-15.4,1.8
		l-8.8,25l-5.6-46.7l6.7-37.2l-19.1,25.7l10.9-35.5l-40.5,29c26.7-29.6,82.7-100.9,61.6-86.8c-7.4,4.9-25,10.1-33.9,9.6
		c-2.4-0.1,21.8-18.7,24.1-21.2c54.4-59.1-11.9-16.5-47.5,0.8c-3.2,1.6,12.6-56.3,18-66c6.4-11.6,25.5-42,27.9-54.3
		c-1.9,34.4-33.1,72.2-34.9,104.8c0.3-5.3,30.8-23.2,35.6-24.8c31.5-10.5,64.6-31.2,71.3,1.9C558.6,180.7,539.5,197.3,520.5,221.8z"
		/>
	<polygon fill="#1A1A1A" points="423.1,96.3 442.7,78.3 443.1,86.3 454.6,71.4 450.2,87.1 460.8,78.8 469.3,70 479.4,70.5 
		488.2,71.9 486.8,66.1 483.6,58.4 480.1,57.7 478.5,54.5 471.8,48.8 467.6,44.2 466.6,38.4 466.8,33.5 449,52.5 433.8,69.8 
		406.2,105.1 425.7,88 	"/>
	<path fill="#1A1A1A" d="M484.7,51.6l4.3,1.8l8.4,6.4l-15.7-30.3C457.8,32.3,473.5,46.8,484.7,51.6z"/>
	<polygon points="502.8,55.3 503.9,44.4 497.7,34.1 489.8,30 495.6,41.8 	"/>
	<polygon points="502.1,76.4 493.3,92.1 492.5,126.3 486.2,109.5 483.6,116 478.5,136.1 470.3,156 463.9,168.9 460.2,179.4 
		465.9,172.6 471.2,172 478.1,168.4 486.3,163.1 498.8,156.1 488.2,140.4 512.7,150.3 518.1,148.4 516.2,110.6 513.4,90.6 
		505.5,110.9 506.6,84.1 	"/>
	<path d="M468.3,455.1l-0.8-15.3l3-51L441,434.3c5.6-26.8,8.5-53,7.6-78.5l-24.9,23.4c-6.9-18.7-3.2-39,5.2-59.9l-28.5,46.6
		c-2.9-24-0.4-46.6,4.7-68.6c-15.1,19.7-29.3,41-41.5,65.7l5.4-46.7l-29.9,22.3c8.5-30.6,27-62.1,44.1-83.1
		c-20.4,14.7-43.8,39.8-58.7,63.9l2.7-32.2l-38.2,33.5l21.2-44.6l13.6-29.7l-21.5,4.4l9.1-31.8l22.5-28.7l-24,4.8l7.1-23.3
		l23.8-15.1c3.9,1,7,1.7,7,1.7l-4.9,17.4l9.7-7.4l11.4-12.1l5.5-5.2l-0.4-2.7l9-8.3l11.8-13.5l3-6l-14.6,7.2l-10,3.9l-23.5,4l17.1,1
		l-26.3,10.6l-4.6-4.3l-1.4-7.7l55-18.4l-20.1-5.2l-7.9,3.3l-20.3,0.9l3.3,4.8L316.5,131l-25.4,19.5l10.9-0.7l-18.8,24.1l-35,31.5
		l18.6-6.9l-31.8,30l12.7-0.1l-40.9,23.9l27.3-2.2l-61.6,20c-5,5.5-11.7,9.7-13.4,16c-2.1,7.6,4.3,18,13.5,26.9l6.1,5.1l-6.9,6.1
		l4.8,5.1l-12.5,6.8l7.7,4l-17.4,15.4l18.4-3.6l-20.2,18.8l30.5-7.2L111.2,426l140.7-80.2l-21,23.6l44.3-27.9l-55.6,58.6l74.2-32.2
		l-9.8,40.5l41.6-29.7l6.9,23.2l11.1-14.2l14.1-2.1l8.6,10.2l9.6-10.6l17.3,1.4l-9.8,44.6l28.8-25.1l-3.1,28.9
		c14.8,15.2,48.2,25.8,63.2,43.3L468.3,455.1z M360,137.3c1.8-1.4,5.5-0.6,8.1,1.7c2.6,2.3,3.3,5.4,1.4,6.8
		c-1.8,1.4-5.5,0.7-8.1-1.7C358.8,141.7,358.2,138.7,360,137.3z M260.2,241.4l18.8-5.4l-17.5-5.9c20.1,2.4,32.8-4.7,42.2-16.2
		l-14.5,30.6l4.7,4.5l-10.3,5.1l-8.8,4.5l-24.6-6.3l16.5-2.7L260.2,241.4z M274.8,287.9l-19.7,7.5l-9.7,0.8l-10.6-2.5l4.8,3
		l-5.3,0.4l-20.7-0.4l9,4.8l33.4,19.4l-43.9-10l-15-0.1l-11.7-8.5l-4.6-6.7c0.5-10.2,13.4-13.4,28.6-14.8l-5.6,10.4l18.7-16.8
		l12.7-10l7.3-2.5L238,269l11.2-8.9l10,0.5l12.6,3.5l22.3-3.1l-11.2,10.1l15.1-2l-32.8,13.2l20.1-2.5L274.8,287.9z"/>
	<path fill="#8E979D" d="M485.5,169.9c-4.8,1.6-35.3,19.5-35.6,24.8c1.8-32.6,33-70.4,34.9-104.8c-2.5,12.3-21.5,42.7-27.9,54.3
		c-5.4,9.7-21.2,67.6-18,66c35.6-17.3,101.9-59.9,47.5-0.8c-2.3,2.5-26.5,21.1-24.1,21.2c8.9,0.5,26.5-4.7,33.9-9.6
		c21-14.1-35,57.3-61.6,86.8l40.5-29l-10.9,35.5l19.1-25.7l-6.7,37.2l5.6,46.7l8.8-25l15.4-1.8l-16.4-34.1l17.8,6.2l-16.7-17.1
		l16.6-6.8l-14.2-9.7l10.1-5.9l-8.9-5.4l1.5-9.8l5.5-14.6c3.8-10.2,12.2-18.6,18.7-27c19-24.4,38.1-41.1,36.3-50
		C550.1,138.7,517,159.4,485.5,169.9z"/>
	<path fill="#8E979D" d="M275,258.6l8.8-4.5l10.3-5.1l-4.7-4.5l14.5-30.6c-9.4,11.5-22.2,18.6-42.2,16.2l17.5,5.9l-18.8,5.4l6.7,8.2
		l-16.5,2.7L275,258.6z"/>
	<path fill="#FFFFFF" d="M297.9,269.2l-15.1,2l11.2-10.1l-22.3,3.1l-12.6-3.5l-10-0.5L238,269l4.7-7.1l-7.3,2.5l-12.7,10l-18.7,16.8
		l5.6-10.4c-15.2,1.4-28.1,4.7-28.6,14.8l4.6,6.7l11.7,8.5l15,0.1l43.9,10l-33.4-19.4l-9-4.8l20.7,0.4l5.3-0.4l-4.8-3l10.6,2.5
		l9.7-0.8l19.7-7.5l10.4-8l-20.1,2.5L297.9,269.2z"/>
	<path fill="#FFFFFF" d="M369.5,145.7c1.8-1.4,1.2-4.4-1.4-6.8c-2.6-2.3-6.2-3.1-8.1-1.7c-1.8,1.4-1.2,4.4,1.4,6.8
		C364.1,146.4,367.7,147.1,369.5,145.7z"/>
</g>
</svg>
