<?xml version="1.0" encoding="utf-8"?>
<!-- Generator: Adobe Illustrator 18.1.0, SVG Export Plug-In . SVG Version: 6.00 Build 0)  -->
<svg version="1.1" id="Layer_1" xmlns="http://www.w3.org/2000/svg" xmlns:xlink="http://www.w3.org/1999/xlink" x="0px" y="0px"
	 viewBox="0 0 600 600" enable-background="new 0 0 600 600" xml:space="preserve">
<g>
	<path fill="none" d="M480.3,252.3c3.9,1.2,6.8,4,8.3,7.5c6.7-10.6,10.8-25.7,4.7-46l-21.2,36.9C475.1,251,477.8,251.5,480.3,252.3z
		"/>
	<path fill="#FDB515" d="M466.7,250.5c1.9,0,3.6,0.1,5.3,0.3l21.2-36.9c-0.9-2.9-1.9-5.8-3.2-8.9l-26.2,45.6
		C464.8,250.5,465.8,250.5,466.7,250.5z"/>
	<path fill="#FDB515" d="M358.1,434.6l-42.7,74.4c-0.5,0.8-1.1,1.5-1.9,2c-0.8,0.5-1.7,0.7-2.7,0.7c-0.9,0-1.8-0.2-2.7-0.7
		c-0.8-0.5-1.5-1.1-1.9-2l-50.3-87.6c-3.4-0.5-6.6-1.2-9.6-2.1l53.6,93.3c1.1,2,2.6,3.5,4.6,4.6c1.9,1.1,4,1.7,6.3,1.7
		c2.2,0,4.3-0.6,6.3-1.7c1.9-1.1,3.5-2.7,4.6-4.6l46.1-80.3l-5.4,1.7C360.9,434.4,359.5,434.6,358.1,434.6z"/>
	<path fill="#FDB515" d="M69.2,96.4c-0.5-0.8-0.7-1.7-0.7-2.7c0-1.5,0.5-2.7,1.6-3.8c1-1,2.3-1.6,3.8-1.6h134.7c1,0,1.8,0.2,2.7,0.7
		c0.8,0.5,1.5,1.1,1.9,2l9.4,16.3c1.6-0.5,3.3-0.7,5-0.6c0.4,0,1.6,0.1,3.2,0.3l-11.3-19.6c-1.1-2-2.7-3.5-4.6-4.6
		c-1.9-1.1-4-1.7-6.3-1.7H73.7c-3.5,0-6.4,1.2-8.9,3.7c-2.5,2.5-3.7,5.4-3.7,8.9c0,2.3,0.6,4.3,1.7,6.3l70,121.8
		c1.3-1.9,2.9-3.9,4.9-6.1L69.2,96.4z"/>
	<path fill="#FDB515" d="M408.6,91.1c0.5-0.8,1.1-1.5,1.9-2c0.8-0.5,1.7-0.7,2.7-0.7h134.7c1.5,0,2.7,0.5,3.8,1.6
		c1,1,1.6,2.3,1.6,3.8c0,1-0.2,1.8-0.7,2.7L540.1,118c3.7-1.7,7.4-3.3,10.9-4.6l7.7-13.4c1.1-2,1.7-4,1.7-6.3c0-3.5-1.2-6.4-3.7-8.9
		c-2.5-2.5-5.4-3.7-8.9-3.7H413.2c-2.2,0-4.3,0.6-6.3,1.7c-1.9,1.1-3.5,2.7-4.6,4.6l-19.6,34.1c2,1.4,3.9,3,5.7,4.7L408.6,91.1z"/>
	<path fill="#F2F2F2" d="M308.1,510.9c0.8,0.5,1.7,0.7,2.7,0.7c1,0,1.8-0.2,2.7-0.7c0.8-0.5,1.5-1.1,1.9-2l42.7-74.4
		c-1.6,0-3.1-0.3-4.6-0.9c-0.6,0.3-1.1,0.5-1.6,0.8l-41.3,71.9L261.6,421c-1.2,0.3-2.4,0.5-3.6,0.5c-0.6,0-1.2,0-1.8-0.1
		c-0.1,0-0.2,0-0.3-0.1l50.3,87.6C306.6,509.7,307.3,510.4,308.1,510.9z"/>
	<path fill="#F2F2F2" d="M463.9,250.6l26.2-45.6c-0.2-0.4-0.3-0.8-0.5-1.2l-2.4-4.7l-29.9,52C459.6,250.8,461.7,250.7,463.9,250.6z"
		/>
	<path fill="#F2F2F2" d="M553.2,93.7c0-1.5-0.5-2.7-1.6-3.8c-1-1-2.3-1.6-3.8-1.6H413.2c-0.9,0-1.8,0.2-2.7,0.7
		c-0.8,0.5-1.5,1.1-1.9,2l-20.2,35.2c1.3,1.3,2.6,2.6,3.8,4l20.9-36.4h134.7l-16.3,28.4c2.9-1.5,5.8-2.9,8.6-4.2l12.4-21.7
		C553,95.6,553.2,94.7,553.2,93.7z"/>
	<path fill="#F2F2F2" d="M211.1,89.1c-0.8-0.5-1.7-0.7-2.7-0.7H73.8c-1.5,0-2.7,0.5-3.8,1.6c-1,1-1.6,2.3-1.6,3.8
		c0,1,0.2,1.8,0.7,2.7l68.5,119.3c1.1-1.3,2.3-2.6,3.7-3.9L73.7,93.9h134.7l8.9,15.6c1.5-0.7,3.1-1.4,4.8-2c0.1,0,0.2,0,0.3-0.1
		l-9.4-16.3C212.6,90.2,211.9,89.6,211.1,89.1z"/>
	<path d="M586.2,176.9c-2.7-29.8-8.3-55.6-8.5-56.7c-0.8-3.4-2.8-6.4-5.8-8.3c-3-1.9-6.6-2.5-10-1.8c-3.4,0.8-7,1.9-10.9,3.3
		c-3.5,1.3-7.2,2.9-10.9,4.6c-2.8,1.3-5.7,2.7-8.6,4.2l16.3-28.4H413.1l-20.9,36.4c-1.2-1.4-2.4-2.7-3.8-4c-1.7-1.7-3.6-3.3-5.7-4.7
		c-5.6-3.9-12.4-6.7-20.5-6.7c-2.7,0-5.5,0.3-8.2,1c-6.5,1.5-13.1,2.3-19.6,2.3c-7.9,0-13-1.1-13-1.1c-0.1,0-0.2,0-0.2-0.1
		c-9.3-2.1-17.9-3.2-25.6-3.2c-12.5,0-20.9,2.8-26.2,5.8c-4-1.1-9-2.8-12.8-4.9c-8.9-5-20.4-6.9-26-7.6c-1.6-0.2-2.8-0.3-3.2-0.3
		c-1.7-0.1-3.4,0.1-5,0.6c-0.1,0-0.2,0-0.3,0.1c-1.7,0.6-3.3,1.3-4.8,2l-8.9-15.6H73.7l67.8,117.9c-1.3,1.3-2.6,2.6-3.7,3.9
		c-1.9,2.2-3.5,4.2-4.9,6.1c-0.6,0.9-1.2,1.8-1.7,2.6l-87.6-51.8c-1.7-1-3.5-1.5-5.4-1.5c-1.9,0-3.7,0.5-5.4,1.5c-1.7,1-3,2.3-3.9,4
		l-15.1,27.5c-0.9,1.6-1.3,3.3-1.3,5.2c0,1.9,0.5,3.7,1.4,5.4c1,1.7,2.3,3,3.9,3.9c19.3,11.1,58.6,33.8,80.5,46.4
		c-2,3.3-3.3,6.6-3.9,9.9c-1.7,9.3,2.4,15.2,3.7,16.7c3,3.6,7.8,5.3,12.4,4.5c4.2-0.7,7.8-3.5,9.6-7.3c5.2-5.6,9.2-8.4,13.4-10.1
		c-2.7-1.5-5.4-3.1-8.1-4.6c-3.6,2.2-7.5,5.5-12,10.5c-0.1,0.2-0.1,0.4-0.1,0.4c-0.6,1.8-2.2,3.2-4.1,3.5c-1.9,0.3-3.9-0.4-5.1-1.9
		c-0.5-0.6-3.2-4.2-2-10.3c0.7-3.5,2.5-7.2,5.4-11l1.1-0.9c-29.5-17-59.3-34-88.1-50.5c-0.8-0.5-1.4-1.1-1.9-1.9
		c-0.5-0.8-0.7-1.7-0.7-2.6c0-0.9,0.2-1.7,0.6-2.5l15.1-27.5c0.5-0.8,1.1-1.5,1.9-1.9c0.8-0.5,1.7-0.7,2.6-0.7
		c0.9,0,1.8,0.2,2.6,0.7l120.1,70.9c10.5-8.7,15.1-19.7,15.1-19.7l-8.3-0.5c1.6-7.8,32-33.1,32-33.1l-6.7-3.6
		c3.1-6.3,21.1-14.6,21.1-14.6c6.7,9.9,23.3,3.6,23.3,3.6c-13.9-6.1-14.5-28.4-14.5-28.4c12.5-3.1,22.8,7.2,22.8,7.2
		c22.7,38.8,43.3,19.6,43.3,19.6c-14.5,4.7-35.1-20.1-35.1-20.1s-5.2-4.2,0.6-1.6c5.6,2.5,23.7-12.6,23.7-12.6
		c20.6-4.5,32.3,4.7,32.3,4.7c14.5-6.8,37.2,7.8,37.2,7.8c-6.7-2.2-15.9,6.7-15.9,6.7c10.8,0.5,34.1,11.8,26.2,14.4
		c-7.7,2.7-22.2-4.1-22.2-4.1c12.3,17.1,26.4,16,26.4,16l-5.8,4.1c7.8,0.6,11.4,9.9,11.4,9.9c-22.2,4.7-27.3-10.3-27.3-10.3
		c-12.3-27.9-30.4-35.1-44.4-28.6c-13.9,6.7-19.1-2.5-19.1-2.5s-3.6,14.5,15.9,7.7c19.7-6.6,28.9,9.9,28.9,9.9s-7.6-3.1-12.8-0.9
		c-5.1,2-16.6,8.2-16.6,8.2c4.7,1.1,15.9-2,15.9-2c19.7-5.7,29.4,18.7,29.4,18.7c-5.2-6.3-21.1-11-30.3-3.6
		c-3.3,2.5-13,3.6-18.1-6.3c-5.2-9.7-16.4-4.5-16.4-4.5c5.2,0,9.7,7.7,9.7,7.7c-13.9,3.1-13.9,11.9-13.9,11.9
		c15.9-10.8,24.2-1.6,24.2-1.6s-2,0-14.4,8.8c-12.4,8.8-19.7,1.6-19.7,1.6c6.3,18.7,26.4,4.7,31.5-0.5c5.2-5.2,17.5-7.8,17.5-7.8
		c-15,30.1,27.8,15.5,27.8,15.5c-2.5,8.3-15.9,14.6-15.9,14.6l2-8.8c-22.2,24.3-43.7,10.8-43.7,10.8s11.7,16,34.5,6.3
		c22.7-9.9,46.9,4.5,46.9,4.5c-1.1-10.3-17.5-14-17.5-14c10.3-7.7,35-1,35-1c-5.6-10.3-27.8-7.8-27.8-7.8
		c10.3-12.9,41.7-4.1,41.7-4.1s-18.4-11.9-31.4-9.4c-12.8,2.7-15.9-7.2-15.9-7.2c11-6.1,41.7,1.6,43.2,2c0,0,0.1,0,0.1,0
		c5.2-22.7,18.6-16.5,18.6-16.5c-9.4,3.4-16.9,12-13,16.7c3.9,0.3,8.1,1.1,12.5,2.6c6-1.6,9.3-6.4,9.3-6.4l3.1,13
		c-3.9-3.1-8.2-5.2-12.4-6.6c-2.3,0.6-5.1,0.7-8.2-0.1c-2-0.6-3.4-1.4-4.3-2.4c-2-0.2-3.9-0.3-5.6-0.2c0,0,0,0,0,0c0,0,0,0-0.1,0
		c-5.2,0-8.7,0.6-8.7,0.6c15.5-0.6,37.7,15.5,41.2,24.8c3.6,9.3-8.3,8.3-10.3,8.3s-7.8-7.2-13.9-3.6c-6.3,3.6-22.7,1-22.7,1
		c-1.6,10.3,5.2,13,5.2,13s19,2.5,9.7,8.8c-12,8-0.5,23.8-0.5,23.8c-9.2,13.5-53.1-2.7-59.4-5.2c-2.7-1.2-17.6-3.1-31.4,1.4
		c1.2,0.7,2,1.8,2.4,3.2l2,7.8c4-1,7-1.1,7-1.1c3,33.7,17.5,42.1,17.5,42.1c-1.6-16.2,9.8-32.6,9.8-32.6c0,2,5.1,7.7,5.1,7.7
		c0.9-0.4,2.1-0.8,3.3-1.2c5.9,8.8,15.4,24.7,14.9,34.9c-0.7,13.6,6.4,28.5,7.5,30.7c-1.5,1.8-2.6,2.9-2.6,2.9l-7.2-8.2l-7.2,7.7
		c-2.9-3.2-11.2-14.7-16.8-44.2c0,0,0.4,16.3,7.9,36.4l-0.9-1l-10.8,8.3c-5.2-8.8-6.3-34.7-6.3-34.7c-5.4,4.5-9,9.2-11.5,13.4
		c0,0.9-0.3,1.9-0.9,2.7l-1.9,3c-2,5-2.3,8.4-2.3,8.4s-0.8-0.7-2-1.9l-6.5,9.9c29.1,23.6,71.4,15.2,71.4,15.2
		c7.2,12.4-17.5,20.2-17.5,20.2v-2.7c0,0-25.3-2.8-39.2,0.8c-14.1,3.8-26.2-6-26.2-6c-0.2,1,0.1,2,0.7,3c3.3,5.6,16.8,11.3,25.5,9.4
		c10.3-2,24.8,2.7,24.8,2.7l0.5,7.7c5.6-6.1,21.6-11.8,21.6-11.8v4.1l16.6-5.2c8.7-12.4-1.6-27-1.6-27c1.6-2,2.8-4.2,3.7-6.3
		c0.8,1.9,2,3.5,3.6,4.9c-0.3,0.6-0.6,1.1-0.9,1.6c3,5.9,7.7,18.4-0.4,29.9c-0.7,1-1.7,1.7-2.8,2l-16.6,5.2
		c-1.6,0.5-3.4,0.2-4.8-0.8c-0.4-0.3-0.7-0.6-1-0.9c-5.2,2.3-11,5.3-13.4,7.9c-1,1.1-2.5,1.8-4,1.8c-0.6,0-1.2-0.1-1.8-0.3
		c-2-0.7-3.5-2.6-3.6-4.8l-0.2-3.8c-3.4-0.8-8.8-1.9-13.9-1.9c-1.8,0-3.4,0.1-4.8,0.4c-1.4,0.3-3,0.5-4.7,0.5
		c-8.9,0-19.7-4.4-24.8-10.1c-0.4,0-0.7-0.1-1.1-0.1c-3.3-0.3-7.4-0.6-11.2-2.9h-8.4c-1,1.4-2.6,2.3-4.4,2.3c-0.2,0-0.5,0-0.7,0
		c-15.8-2.2-26.6-10-32.2-15l-2.3,2.5c-1.7,1.9-4.6,2.3-6.8,1c-35-21-46.6-45-50.1-61.5c-2-9.2-1.8-17.1-1.1-22.7l-3.5,0.9
		c-2.9,0.7-5.8-1-6.5-3.8c-1.8-6.6-2.5-13.7-2.3-21.2c-0.2-0.6-0.4-1.2-0.4-1.8c0-0.6,0.1-1.3,0.2-2.1l-7.2-4.3
		c-0.5,2.6-0.8,4.7-0.8,6.4c0,0.9,0.1,1.9,0.3,2.8c-0.1,7.4,0.6,14.9,2.6,22.3c1.3,4.7,4.8,8.1,9.2,9.3
		c-0.1,20.9,8.6,54.4,55.5,82.6c4.2,2.5,9.3,2.5,13.4,0.1c5.2,3.8,12.1,7.8,21,10.3c3,0.9,6.2,1.6,9.6,2.1c0.1,0,0.2,0,0.3,0.1
		c0.6,0.1,1.2,0.1,1.8,0.1c1.2,0,2.5-0.2,3.6-0.5l49.1,85.4l41.3-71.9c0.5-0.3,1-0.5,1.6-0.8c1.5,0.6,3,0.9,4.6,0.9
		c1.4,0,2.8-0.2,4.2-0.6l5.4-1.7l11.1-3.5c2.8-0.9,5.2-2.6,6.9-5c6.6-9.3,6.9-19.5,4.8-28l18.5,15.1c2.4,2,5.4,3,8.4,3
		c1.9,0,3.9-0.4,5.7-1.3c4.6-2.2,7.5-6.8,7.5-11.9v-4l4.5-4.1c0.5-0.4,0.9-0.9,1.3-1.4l3.7,1c1.1,0.3,2.2,0.4,3.3,0.4
		c3.9,0,7.7-1.7,10.2-4.9c3.3-4,3.9-9.5,1.6-14.2l-0.8-1.7l2.4-3.5c3-4.4,3.1-10.2,0.2-14.6c-1.6-2.4-3.9-4.2-6.4-5.2
		c52.1-30.6,103.5-61.5,123.1-85.3C586,248.2,590.1,220,586.2,176.9z M312.5,210.4c0,0,3.1-5.7,9.4-3.3c-2,3.3-4.4,9.6-1.7,17.7
		C303.3,225.3,312.5,210.4,312.5,210.4z M322.6,224.7c1.9-2.7,4.6-8,2.9-15.5c2.1,1.6,4.5,4,7.1,7.6l3.7,4.9
		C330.7,223.4,326.2,224.3,322.6,224.7z M489.6,203.8c0.2,0.4,0.3,0.8,0.5,1.2c1.3,3.1,2.3,6,3.2,8.9c6.1,20.3,2,35.4-4.7,46
		c-1.5-3.5-4.5-6.3-8.3-7.5c-2.5-0.8-5.2-1.2-8.2-1.5c-1.7-0.2-3.5-0.3-5.3-0.3c-0.9,0-1.9,0-2.8,0.1c-2.2,0.1-4.3,0.3-6.5,0.5
		l29.9-52L489.6,203.8z M414,323.3l8.1-13.8l4.8,5L414,323.3z M495.5,165.6c15.9-13.7,63.7-33.4,63.7-33.4l3.8,17.1l-60.8,29.3
		L495.5,165.6z M451.1,360.8c0,1.1-0.3,2-0.9,2.9l-5,7.4l2.9,5.9c0.4,0.7,0.5,1.5,0.5,2.3c0,1.4-0.5,2.6-1.5,3.6
		c-1,1-2.2,1.5-3.6,1.5c-0.4,0-0.9-0.1-1.3-0.2l-10.9-2.8c0.1,0.4,0.1,0.7,0.1,1.1c0,1.5-0.6,2.8-1.7,3.8l-7.2,6.5v7.6
		c0,1.4-0.5,2.6-1.5,3.6c-1,1-2.2,1.5-3.6,1.5c-1.2,0-2.3-0.4-3.2-1.2L386,381.6c-0.6-0.5-1.1-1.1-1.4-1.8c-0.3-0.7-0.5-1.4-0.5-2.2
		c0-1.4,0.5-2.6,1.5-3.6c1-1,2.2-1.5,3.6-1.5c0.2,0,0.5,0,0.7,0l13.2,1.8l-2.5-0.6c-1.1-0.3-2.1-0.9-2.8-1.8c-0.7-0.9-1.1-2-1.1-3.2
		c0-1.2,0.4-2.4,1.2-3.3c0.8-1,1.8-1.5,3-1.8l44.1-7.8c0.3-0.1,0.6-0.1,0.9-0.1c1.4,0,2.6,0.5,3.6,1.5
		C450.6,358.2,451.1,359.4,451.1,360.8z M369.1,371.7c-0.5,0.7-1,1.3-1.5,1.9l1.4-2.1l2-3l1.1-1.7c-0.1-0.4-0.2-0.8-0.3-1.2l1.9-0.5
		c-0.8,1.3-1.7,2.7-2.7,3.9C370.3,370,369.7,370.9,369.1,371.7z M358.5,307.8l10.1,1.6l-6.6,3.5L358.5,307.8z M461.5,305.9
		c65-34.4,58-74.7,58-74.7l43.1-18c1.6,19.1-8.6,35.1-17.2,46.6c-8.7,11.5-89,64.8-118.1,80c-0.7,0.4-10.8,6.2-27.1,15.9l-0.6,0.1
		c-3.4,0.6-6.3,2.5-8.2,5.1c-0.4,0.3-0.8,0.5-1.3,0.8l2-4.1l-18.4,5.7l13.4-12.4l-8.3,1.4C416.7,330.5,446.8,313.5,461.5,305.9z
		 M507.5,186.6l32-12.1l-28,20.6L507.5,186.6z M539.9,191.4l-24.1,14.9l-2.2-4.9L539.9,191.4z M550.9,199.4l-32.2,21l-1.6-8.2
		L550.9,199.4z M385.9,365c-2.2,0.6-4.2,1.7-5.9,3.4c0-1.7-0.1-3.3-0.2-4.8l7.6-2L385.9,365z M416.2,298.6c0,0-13.9-2-13.1-7.4
		c0.1-1.3,25.6-15.3,24.3-24.5c-0.8-1.8-1.5-2.8-1.5-2.8c0.9,0.9,1.3,1.8,1.5,2.8C429.6,272.2,432.1,284.8,416.2,298.6z
		 M378.3,355.3c0-0.2-0.1-0.3-0.1-0.4l0.5,0L378.3,355.3z M392.4,335.3c2-4.1,4.7-23.8,4.7-23.8c2,0,10.3-1.6,10.3-1.6
		C407.1,317.2,392.4,335.3,392.4,335.3z M386.8,309.8l-6.3,3.5l-2.2-3.9L386.8,309.8z M370.9,349.7c2.4-16.2,14.4-26.1,20.3-29.9
		c-1.1,7.5-3.5,16.4-4.9,21.2l-13.1,7.5L370.9,349.7z M370.6,354.2l7.4,0.7c0,0.3-0.1,0.5-0.1,0.8l-6.8,6.3
		C370.6,359.3,370.5,356.7,370.6,354.2z M240,138.6l-8.9-12.4c0,0,20.3,11.5,35.1,13.3C266.3,139.6,252.2,158.1,240,138.6z
		 M403.7,171.9c0,0-19.7-12.1-33,0c0,0,3.1-12.4,14.4-12.1C396.4,160.2,403.7,171.9,403.7,171.9z M385,199.4
		c-4.4-18.5,6.6-19.3,6.6-19.3c-3.1-3.6-14.4-0.5-14.4-0.5c15.5-17.9,34.8,7.8,34.8,7.8C398.4,174.6,385,199.4,385,199.4z
		 M356.1,155.6c-1.4-2.8,19.4-15.5,28.7-0.5c0,0-10.9-1.9-15.5,4.4C364.7,165.7,357.6,158.3,356.1,155.6z M341.2,139.3
		c11.9,2.9,17.7,3.8,20.6,2c0.1-0.1,0.3-0.2,0.4-0.3c0.1-0.1,0.2-0.2,0.2-0.2s-0.1,0.1-0.2,0.2c-0.1,0.1-0.3,0.2-0.4,0.3
		c-1.5,1.1-5.8,3.7-12.5,5.3c-8.6,1.9-22-8.2-34.8-5.8C314.5,140.9,328.4,136.2,341.2,139.3z M396,208.3l3.3-2c0,0,0.8-1.2,2.4-2.3
		c0,1.9,0.4,4.8,2.6,7.1C401.3,212.4,398,212.4,396,208.3z M405.3,210.7c0.2-1.8,0.4-5.2-0.8-7.9c0.7-0.2,1.4-0.3,2.3-0.4
		c0,0,3.3-1.1,4.7,3.8C411.5,206.1,408.7,209,405.3,210.7z M313.5,295.9l15,5.8c-4.1,5.2-8.7,21.6-8.7,21.6
		C313.5,312.5,313.5,295.9,313.5,295.9z M340.6,308.6l-1.9-4.7l11.6,2L340.6,308.6z M311.5,378.1c-3.6-13.3,6.1-23.2,6.1-23.2
		c-2.4,18.5,10,27.5,10,27.5l11.6-5.3l5.9,8.5l10.8-8.5l6.6,6.6c5.8-4.7,13.6-14.4,13.6-14.4c1.7,5.6-5.6,17.3-5.6,17.3
		C335.6,402.6,311.5,378.1,311.5,378.1z M567.6,258.3c-20.1,24.5-77.4,58-132.7,90.4c-0.6,0.4-1.2,0.7-1.8,1.1l-15.4,2.7
		c57.7-33.9,124.5-71.8,145.7-97.6c23.8-29,1.3-131.8,1.3-131.8c-27.7,6.1-79.1,43.2-79.1,43.2l15.9,32
		c28.6,65.4-29.1,93.5-29.1,93.5L421.4,321l10.1-6.2l-8.9-8.8L408,328.6l-4.7,2.7c8.4-10.4,11.7-22.3,11.7-22.3
		c7.8-3.6,11.4-11.9,11.4-11.9c13.4-10.4,33.6-9.9,33.6-9.9c-5.8-1.6-27.3-3.1-27.3-3.1c23.1-10.8,37.7-7.2,37.7-7.2
		c-15-6.3-34.1-1.6-34.1-1.6c13.4-8.8,40.1-10.3,40.1-10.3c-13.4-4.1-39.2,3.6-39.2,3.6c10.3-21.6-4.1-29.5-4.1-29.5
		c0-4.7-8.8-17.6-8.8-17.6c3.6-8.8-7.2-34.2-7.2-34.2c-2.9-13.5-22.5-29.3-25-31.3c-0.2-0.1-0.3-0.2-0.3-0.2c0,0,0-0.1,0-0.1
		c-1.3-3.5-13.1-32-35-26.9c-22.2,5.2-38.8,1.1-38.8,1.1c-36.5-8.3-45.9,4.1-45.9,4.1s-12.8-2.5-22.2-7.7
		c-9.2-5.2-23.8-6.3-23.8-6.3c-25.8,8.8-15.5,43.5-15.5,43.5c-40.6,11.9-49.4,40.5-49.4,40.5l5.6,4.1c-14.5,9.8-21.4,18.1-24.6,23.3
		l-4.7-2.8c3.1-5,9-12.2,20-20.6c-1.5-1.4-2.2-3.6-1.5-5.6c0.4-1.2,9.3-29.2,48.1-42.5c-2.8-14.7-1.4-37.6,20.1-45
		c0.7-0.2,1.4-0.3,2.2-0.3c0.6,0,15.9,1.3,26,7c6.1,3.4,14,5.6,18,6.5c3.6-2.7,11.1-6.5,24.8-6.5c7.1,0,15.1,1,23.9,3
		c0.1,0,5.9,1.4,14.9,1.4c7.2,0,14.4-0.8,21.4-2.5c2.1-0.5,4.3-0.8,6.4-0.8c20.5,0,31.7,23.4,34.3,29.7c5.1,4.1,22.6,19,26,33.2
		c2.6,6.3,9.6,24.2,7.9,34.9c2.6,4,6.5,10.4,7.8,15.4c5,3.9,10.3,12.3,7.5,25c6-1.3,13.9-2.6,21.1-2.6c4.4,0,8.2,0.5,11.3,1.4
		c2.5,0.8,4.1,3.2,3.8,5.8c-0.3,2.6-2.4,4.6-5.1,4.8c-0.1,0-2.7,0.2-6.6,0.6c0.8,0.3,1.6,0.6,2.3,0.9c2.6,1.1,3.9,4,3.1,6.7
		c-0.9,2.7-3.7,4.2-6.4,3.5c0,0-3.2-0.7-8.4-0.3c0.3,0.1,0.6,0.1,0.8,0.2c2.6,0.7,4.3,3.3,3.9,6c-0.1,0.8-0.4,1.5-0.8,2.1l5.2-3
		c0.1-0.1,0.2-0.1,0.3-0.2c2.1-1.1,52.5-26.7,26.5-86.4l-15.9-31.9c-1.2-2.4-0.5-5.2,1.7-6.8c2.1-1.5,52.6-37.8,81-44.1
		c1.4-0.3,2.9,0,4.1,0.7c1.2,0.8,2.1,2,2.4,3.4c0.2,1.1,5.7,26.4,8.4,55.7C582,218,578.4,245.1,567.6,258.3z"/>
	<path d="M430.7,300.7c-0.5,0.9-1.2,2.2-2.2,3.6l4.2,4.1l27.5-15.7c-0.1,0-0.2,0-0.3,0l-0.3,0C457.8,292.6,441.8,292.8,430.7,300.7z
		"/>
	<path d="M380.8,338l0.9-0.5c0.1-0.5,0.3-1,0.4-1.5C381.7,336.6,381.3,337.3,380.8,338z"/>
	<path fill="#F2F2F2" d="M570,121.9c-0.3-1.4-1.2-2.6-2.4-3.4c-1.2-0.8-2.7-1-4.1-0.7c-28.4,6.3-78.9,42.5-81,44.1
		c-2.1,1.5-2.9,4.4-1.7,6.8l15.9,31.9c26,59.7-24.4,85.3-26.5,86.4c-0.1,0.1-0.2,0.1-0.3,0.2l-5.2,3c0.4-0.6,0.7-1.3,0.8-2.1
		c0.4-2.7-1.3-5.3-3.9-6c-0.3-0.1-0.5-0.1-0.8-0.2c5.2-0.4,8.4,0.3,8.4,0.3c2.7,0.7,5.5-0.9,6.4-3.5c0.9-2.7-0.4-5.6-3.1-6.7
		c-0.8-0.3-1.5-0.6-2.3-0.9c3.9-0.5,6.5-0.6,6.6-0.6c2.6-0.2,4.7-2.2,5.1-4.8c0.3-2.6-1.3-5-3.8-5.8c-3.1-0.9-6.9-1.4-11.3-1.4
		c-7.2,0-15.1,1.3-21.1,2.6c2.7-12.7-2.6-21.1-7.5-25c-1.4-4.9-5.2-11.3-7.8-15.4c1.7-10.6-5.2-28.6-7.9-34.9
		c-3.4-14.2-20.9-29.1-26-33.2c-2.6-6.3-13.7-29.7-34.3-29.7c-2.1,0-4.3,0.3-6.4,0.8c-7.1,1.6-14.3,2.5-21.4,2.5
		c-9,0-14.8-1.4-14.9-1.4c-8.8-2-16.8-3-23.9-3c-13.7,0-21.1,3.8-24.8,6.5c-4-1-11.9-3.2-18-6.5c-10.1-5.7-25.4-6.9-26-7
		c-0.7-0.1-1.5,0-2.2,0.3c-21.5,7.4-22.9,30.3-20.1,45c-38.8,13.4-47.7,41.3-48.1,42.5c-0.6,2,0,4.2,1.5,5.6
		c-11.1,8.4-16.9,15.6-20,20.6l4.7,2.8c3.2-5.2,10.1-13.5,24.6-23.3l-5.6-4.1c0,0,8.7-28.6,49.4-40.5c0,0-10.3-34.7,15.5-43.5
		c0,0,14.5,1.1,23.8,6.3c9.4,5.2,22.2,7.7,22.2,7.7s9.4-12.4,45.9-4.1c0,0,16.6,4.1,38.8-1.1c21.9-5.2,33.7,23.4,35,26.9
		c0.1,0.1,0.2,0.2,0.3,0.3c2.5,2,22.1,17.8,25,31.3c0,0,10.8,25.4,7.2,34.2c0,0,8.8,12.9,8.8,17.6c0,0,14.4,7.8,4.1,29.5
		c0,0,25.8-7.7,39.2-3.6c0,0-26.7,1.6-40.1,10.3c0,0,19.1-4.7,34.1,1.6c0,0-14.5-3.6-37.7,7.2c0,0,21.6,1.6,27.3,3.1
		c0,0-20.1-0.5-33.6,9.9c0,0-3.6,8.3-11.4,11.9c0,0-3.3,11.9-11.7,22.3l4.7-2.7l14.6-22.6l8.9,8.8l-10.1,6.2l51.1-29.2
		c0,0,57.6-28.1,29.1-93.5l-15.9-32c0,0,51.4-37,79.1-43.2c0,0,22.5,102.8-1.3,131.8c-21.3,25.8-88,63.7-145.7,97.6l15.4-2.7
		c0.6-0.4,1.2-0.7,1.8-1.1c55.4-32.4,112.6-65.9,132.7-90.4c10.8-13.2,14.4-40.3,10.7-80.7C575.7,148.3,570.2,123,570,121.9z
		 M459.9,292.6c0.1,0,0.2,0,0.3,0l-27.5,15.7l-4.2-4.1c1-1.4,1.7-2.7,2.2-3.6c11-7.8,27.1-8.1,28.9-8.1L459.9,292.6z"/>
	<path fill="#F2F2F2" d="M386.3,341.1c1.4-4.8,3.8-13.7,4.9-21.2c-5.8,3.9-17.9,13.7-20.3,29.9l2.2-1.2L386.3,341.1z M380.8,338
		c0.4-0.7,0.8-1.3,1.3-1.9c-0.1,0.5-0.3,1-0.4,1.5L380.8,338z"/>
	<path fill="#F2F2F2" d="M379.8,363.6c0.1,1.5,0.2,3.1,0.2,4.8c1.6-1.6,3.6-2.8,5.9-3.4l1.5-3.5L379.8,363.6z"/>
	<path fill="#F2F2F2" d="M378.3,355.3l0.4-0.3l-0.5,0C378.2,355.1,378.2,355.2,378.3,355.3z"/>
	<path fill="#F2F2F2" d="M377.9,355.7c0-0.3,0.1-0.5,0.1-0.8l-7.4-0.7c-0.1,2.5,0.1,5.1,0.5,7.8L377.9,355.7z"/>
	<path fill="#F2F2F2" d="M371.8,365.7c0.1,0.4,0.2,0.8,0.3,1.2l-1.1,1.7c0,0.2,0.1,0.4,0.1,0.6c0.9-1.3,1.8-2.6,2.7-3.9L371.8,365.7
		z"/>
	<polygon fill="#DB7B30" points="427,314.5 422.1,309.5 414,323.3 	"/>
	<path fill="#FDB515" d="M221.4,329.2c-1.3-0.8-2.6-1.5-4-2.3c0.1,1.7,0.2,3.1,0.3,4.3C218.8,330.6,220.1,329.9,221.4,329.2z"/>
	<path fill="#FDB515" d="M253.6,362.9l10-7.9c1,0.4,1.9,0.9,2.8,1.5l0.8-0.6c4.5,2,8.3,5.8,11.5,10.1l3.3-2
		c-0.2-0.1-0.4-0.1-0.6-0.2l-11.2-6.4c-10.6-6.1-21.6-12.4-33-18.9C240.3,350.9,249.3,359.5,253.6,362.9z"/>
	<path fill="#FDB515" d="M290.9,387.7c-0.9,1.4-2.3,2.2-4,2.4c-0.2,0-0.4,0-0.6,0c-1.4,0-2.8-0.6-3.8-1.6l-10.8-10.7
		c-1-1-1.6-2.4-1.6-3.8c-1.4-1.4-2.5-2.6-3.3-3.6l-11.6,7.6c-0.9-0.5-1.7-1-2.6-1.5l-1,0.7c-16.3-9-22.5-17.1-24.9-21.5l-4,4.7
		c-1-0.6-1.9-1.3-2.7-1.9l-0.9,1c-17.2-10.9-21-27.6-19.9-43.1c-2.9-1.7-5.9-3.4-8.8-5.1c-3.7,39.7,16.8,59.7,23.8,65.4l9.6-8.4
		c0.1,0.9,0.5,1.9,0.9,3l2.5-2.2c1.1,8.4,18.7,25.7,28.2,34.5c2.3,0.4,4.5,1,6.3,2.2c3.6,0,7,0,10.5,0c4.2,3.2,9.3,2.6,13.6,3.3
		c-0.6-1-0.9-2-0.7-3c0,0,12.2,9.7,26.2,6c13.9-3.6,39.2-0.8,39.2-0.8v2.7c0,0,24.7-7.8,17.5-20.2c0,0-42.3,8.3-71.4-15.2
		L290.9,387.7z"/>
	<path fill="#FDB515" d="M392.4,211.8c-3.9-4.7,3.7-13.4,13-16.7c0,0-13.4-6.3-18.6,16.5C388.5,211.5,390.4,211.6,392.4,211.8z"/>
	<path fill="#FDB515" d="M271.6,301.9c-1.4-1.3-1.9-3.3-1.4-5.1c-4.8,5.2-7.3,9.3-7.3,9.3c1.7-4.5,3.9-8.5,6.5-11.9
		c-4.7,4.7-7.5,8.8-8.4,10.3c-0.2,1-0.3,1.9-0.4,2.8l10.6,6.3c0.5-3.6,1.3-6.8,2.5-9.6L271.6,301.9z"/>
	<path fill="#FDB515" d="M404.9,214.4c-4.4-1.5-8.7-2.2-12.5-2.6c0.8,1,2.2,1.9,4.3,2.4C399.8,215.1,402.5,215,404.9,214.4z"/>
	<path fill="#FDB515" d="M386.8,211.5C386.8,211.5,386.8,211.5,386.8,211.5C386.8,211.6,386.8,211.6,386.8,211.5
		C386.8,211.6,386.8,211.6,386.8,211.5z"/>
	<path fill="#FDB515" d="M417.3,221l-3.1-13c0,0-3.3,4.9-9.3,6.4C409.1,215.8,413.3,217.9,417.3,221z"/>
	<path fill="#FDB515" d="M168.3,252.7c11.1-25,27.2-43.7,27.2-43.7c-2,3.9-3.8,8.2-5.3,12.5c5.2-7.4,8.9-11.8,8.9-11.8
		c-8.2,16.2-12.3,36.8-14.4,52.7l15.6,9.2c-3-23.8,12.4-45.2,14.6-48.2l-7-0.6c0-0.2,0-0.3,0.1-0.5l-3.5-0.4
		c2-29,40.6-37.8,40.6-37.8c-3.4,1.6-6.3,3.4-8.9,5.2c7-3.1,12.5-4.4,12.5-4.4c-22,10.6-25.7,25.9-26.3,29.3h10.8
		c-0.3,0.2-0.5,0.5-0.8,0.7h4.4c-21,17-21,46.5-20.7,53.1l14.6-2c-0.4,0.4-0.8,0.9-1.2,1.4l4.6-0.7c-4.9,5.4-8.4,11.8-10.9,18.4
		l18.5,10.9c-1.7-13.8,1.8-25.7,3.8-30.9l-5.7,2.6c-0.2-0.8-0.3-1.5-0.4-2.2l-3.1,1.3c-8.3-41.4,14.5-55.9,14.5-55.9
		c-0.9,2.1-1.5,4.1-2.1,6c3-3.6,5.4-5.1,5.4-5.1c-7.9,19.4-4.5,31.2-2.8,35.2l11.8-2.9c-0.5,0.7-1,1.4-1.5,2.1l4.8-1.2
		c-10.4,13.6-11.7,33.1-11.9,38.7l10.1-2.7c-0.3,0.6-0.5,1.2-0.8,1.8l4-1.1c-3.5,8.1-5.7,15.5-6.9,22.2
		c15.5-38.2,64.7-32.8,64.7-32.8c0.3,0.2,0.5,0.4,0.6,0.7c1.2,0.1,1.9,0.1,1.9,0.1c1.4,1.1,0,4.2,0,4.2
		c-25.6-3.9-43.6,6.9-54.1,16.6c0.3-0.1,0.5-0.2,0.8-0.2l7.3-0.6c1.4-1.2,2.9-2.3,4.4-3.3l2.2-2.9c1.2-1.7,3.3-2.5,5.4-2.1
		c0.7,0.1,1.2,0.4,1.8,0.8c13.8-4.5,28.6-2.6,31.4-1.4c6.3,2.5,50.2,18.7,59.4,5.2c0,0-11.6-15.8,0.5-23.8c9.4-6.3-9.7-8.8-9.7-8.8
		s-6.7-2.7-5.2-13c0,0,16.4,2.7,22.7-1c6.1-3.6,11.9,3.6,13.9,3.6s13.9,1,10.3-8.3c-3.6-9.3-25.8-25.4-41.2-24.8
		c0,0,3.5-0.6,8.7-0.6c-1.5-0.4-32.2-8.1-43.2-2c0,0,3.1,9.9,15.9,7.2c13-2.5,31.4,9.4,31.4,9.4s-31.4-8.8-41.7,4.1
		c0,0,22.2-2.5,27.8,7.8c0,0-24.7-6.7-35,1c0,0,16.4,3.6,17.5,14c0,0-24.2-14.4-46.9-4.5c-22.8,9.7-34.5-6.3-34.5-6.3
		s21.6,13.5,43.7-10.8l-2,8.8c0,0,13.4-6.3,15.9-14.6c0,0-42.8,14.6-27.8-15.5c0,0-12.3,2.7-17.5,7.8c-5.1,5.2-25.3,19.1-31.5,0.5
		c0,0,7.3,7.2,19.7-1.6c12.3-8.8,14.4-8.8,14.4-8.8s-8.3-9.3-24.2,1.6c0,0,0-8.8,13.9-11.9c0,0-4.5-7.7-9.7-7.7
		c0,0,11.3-5.2,16.4,4.5c5.1,9.9,14.8,8.8,18.1,6.3c9.2-7.4,25.1-2.7,30.3,3.6c0,0-9.7-24.3-29.4-18.7c0,0-11.3,3.2-15.9,2
		c0,0,11.4-6.1,16.6-8.2c5.2-2.2,12.8,0.9,12.8,0.9s-9.2-16.5-28.9-9.9c-19.5,6.8-15.9-7.7-15.9-7.7s5.2,9.3,19.1,2.5
		c13.9-6.6,32,0.6,44.4,28.6c0,0,5.2,15.1,27.3,10.3c0,0-3.6-9.3-11.4-9.9l5.8-4.1c0,0-14.1,1.1-26.4-16c0,0,14.5,6.8,22.2,4.1
		c7.8-2.7-15.5-14-26.2-14.4c0,0,9.2-9,15.9-6.7c0,0-22.7-14.6-37.2-7.8c0,0-11.7-9.3-32.3-4.7c0,0-18.1,15.1-23.7,12.6
		c-5.8-2.7-0.6,1.6-0.6,1.6s20.6,24.8,35.1,20.1c0,0-20.6,19.1-43.3-19.6c0,0-10.3-10.3-22.8-7.2c0,0,0.6,22.3,14.5,28.4
		c0,0-16.6,6.3-23.3-3.6c0,0-18,8.3-21.1,14.6l6.7,3.6c0,0-30.5,25.3-32,33.1l8.3,0.5c0,0-4.6,10.9-15.1,19.7L168.3,252.7z
		 M260.2,277c4.5-1.8,8.8-3.4,13-4.8c-9,2.2-15.1,4-15.1,4c62.2-25.4,90-9.3,90-9.3l0,0c1.4,0.6,2.1,1,2.1,1l-2.5,3.6
		c-0.6-0.4-1.3-0.8-2-1.2l-0.1,0.2c-0.5-0.3-1-0.6-1.5-0.9C319.9,259,260.2,277,260.2,277z M332.6,254l0,0.3
		c1.4,0.3,2.1,0.5,2.1,0.5l-0.5,4.5c-0.7-0.3-1.4-0.5-2.1-0.8l0,0.1c-0.5-0.2-1-0.4-1.5-0.6c-25.6-8.1-65.7,6.2-65.7,6.2
		c3.4-1.7,6.7-3.2,10-4.5c-7.3,1.9-12.1,3.6-12.1,3.6C300.5,244.5,332.6,254,332.6,254z"/>
	<path fill="#FDB515" d="M120.2,271c-1.1-0.6-2.2-1.3-3.3-1.9c-4.4,4.8-6.9,10-8,12.4C113.1,276.9,116.8,273.5,120.2,271z"/>
	<path fill="#FDB515" d="M391.9,155.6C391.9,155.6,392,155.7,391.9,155.6c0,0.1,0.1,0.2,0.3,0.3C392.1,155.8,392,155.7,391.9,155.6z
		"/>
	<path fill="#FDB515" d="M368.9,371.6c0,0.1,0.1,0.1,0.1,0.2c0.6-0.8,1.3-1.7,1.9-2.6c0-0.2-0.1-0.4-0.1-0.6L368.9,371.6z"/>
	<path fill="#AA5A4C" d="M307.5,322.8c0.6,2.3-0.4,4.8-2.5,6c-0.8,0.5-1.8,0.7-2.7,0.7c-1.4,0-2.7-0.5-3.8-1.5l-17.4-17
		c-0.9,2.1-1.5,4.5-1.9,7.1l7.7,4.6c0,0,0.1,0,0.1,0l18.9,11.6c0.8,0.5,1.4,1.1,1.8,1.9c0.4,0.8,0.7,1.6,0.7,2.5
		c0,1.4-0.5,2.6-1.5,3.6c-1,1-2.2,1.5-3.6,1.5c0,0-0.1,0-0.1,0l-5.7-0.1l2.6,2.6c1,1,1.5,2.2,1.5,3.6c0,0.9-0.2,1.7-0.6,2.4l1.4-0.8
		c2.2-1.3,4.9-0.9,6.7,0.9c1.1,1.1,1.6,2.6,1.5,4c2.5-4.2,6.1-8.9,11.5-13.4c0,0,1.1,25.9,6.3,34.7l10.8-8.3l0.9,1
		c-7.6-20.1-7.9-36.4-7.9-36.4c5.6,29.5,13.9,41,16.8,44.2l7.2-7.7l7.2,8.2c0,0,1-1.1,2.6-2.9c-1.1-2.3-8.2-17.2-7.5-30.7
		c0.5-10.2-9-26.1-14.9-34.9c-1.3,0.4-2.4,0.8-3.3,1.2c0,0-5.1-5.7-5.1-7.7c0,0-11.4,16.5-9.8,32.6c0,0-14.5-8.3-17.5-42.1
		c0,0-3,0.1-7,1.1L307.5,322.8z"/>
	<path fill="#AA5A4C" d="M296.3,355.3C296.3,355.3,296.3,355.3,296.3,355.3c-0.4,0-0.7,0-1.1-0.1l-4.7-1c0.8,1.1,1.6,2.1,2.4,3.1
		L296.3,355.3z"/>
	<path fill="#AA5A4C" d="M305.3,370.7c0,0,0.3-3.4,2.3-8.4l-4.3,6.5C304.5,370,305.3,370.7,305.3,370.7z"/>
	<path fill="#AA5A4C" d="M368.9,371.6l-1.4,2.1c0.5-0.6,1-1.2,1.5-1.9C369,371.7,369,371.6,368.9,371.6z"/>
	<path fill="#DB7B30" d="M212.5,268.5l3.5-0.5c-0.3-6.6-0.3-36.2,20.7-53.1h-4.4C209.6,234.2,212.5,268.5,212.5,268.5z"/>
	<path fill="#DB7B30" d="M207.9,222.3c0,0.2,0,0.3-0.1,0.5l7,0.6c0.2-0.2,0.3-0.4,0.3-0.4L207.9,222.3z"/>
	<path fill="#DB7B30" d="M229.4,267.4c-4,4.8-7.1,10.2-9.3,15.9l3.1,1.8c2.5-6.6,6-13,10.9-18.4L229.4,267.4z"/>
	<path fill="#DB7B30" d="M209.7,277.2l1.2,0.7c0.4-0.7,0.6-1.1,0.6-1.1L209.7,277.2z"/>
	<path fill="#DB7B30" d="M252.3,363.9l1.2-1c-4.2-3.4-13.2-12-16.4-24.6c-1.3-0.7-2.6-1.5-3.9-2.2
		C237.1,353.7,252.3,363.9,252.3,363.9z"/>
	<path fill="#DB7B30" d="M217.7,331.3c-0.1-1.2-0.2-2.7-0.3-4.3c-1.2-0.7-2.3-1.3-3.5-2c0.2,5.7,0.7,9.3,0.7,9.3
		C215.1,333.3,216.2,332.2,217.7,331.3z"/>
	<path fill="#DB7B30" d="M225.4,352.4l-5.4,6.2c0.9,0.6,1.8,1.3,2.7,1.9l4-4.7C225.7,353.7,225.4,352.4,225.4,352.4z"/>
	<path fill="#DB7B30" d="M252.7,376.6c0.9,0.5,1.7,1,2.6,1.5l11.6-7.6c-1.1-1.3-1.8-2.1-1.8-2.1L252.7,376.6z"/>
	<path fill="#DB7B30" d="M218.7,214.2h3.6c0.6-3.4,4.3-18.7,26.3-29.3c0,0-5.5,1.3-12.5,4.4C219.9,200.7,218.7,214.2,218.7,214.2z"
		/>
	<path fill="#DB7B30" d="M267.2,355.8l-0.8,0.6c4,2.5,7.4,6.5,10.2,10.7l2.1-1.3C275.5,361.6,271.7,357.8,267.2,355.8z"/>
	<path fill="#DB7B30" d="M163.1,312.7c0.1,0.5,0.2,1.1,0.4,1.6l7.9-2.1c0.3-1.1,0.5-1.8,0.5-1.8L163.1,312.7z"/>
	<path fill="#DB7B30" d="M225,390.7l-5.5,5.9c0.9,0.6,1.8,1.1,2.7,1.7l4.9-5.3C225.7,391.6,225,390.7,225,390.7z"/>
	<path fill="#DB7B30" d="M199.1,209.7c0,0-3.8,4.4-8.9,11.8c-4.6,13-7.3,27.1-8.9,38.9l3.4,2C186.8,246.5,190.9,225.9,199.1,209.7z"
		/>
	<path fill="#DB7B30" d="M213.1,377.8l1.1-1c-7-5.6-27.4-25.7-23.8-65.4c-1.1-0.7-2.3-1.3-3.4-2C182,358.1,213.1,377.8,213.1,377.8z
		"/>
	<path fill="#DB7B30" d="M227.4,369.3l-2.5,2.2c5.6,12.8,33.1,36.8,33.1,36.8c-1.1-0.2-2.2-0.4-3.3-0.6c2.1,0.6,4.4,1.1,6.8,1.4
		c0,0-2.4-2.1-5.9-5.3C246.1,395,228.5,377.7,227.4,369.3z"/>
	<path fill="#DB7B30" d="M248.3,299.9l1.1,0.7c0.2-1,0.3-1.6,0.3-1.6L248.3,299.9z"/>
	<path fill="#DB7B30" d="M239.4,265.5c0.1,0.7,0.2,1.5,0.4,2.2l5.7-2.6c0.7-1.8,1.2-2.8,1.2-2.8L239.4,265.5z"/>
	<path fill="#DB7B30" d="M251.3,284.6l3.3-0.9c0.1-5.7,1.4-25.2,11.9-38.7l-4.8,1.2C250.9,262.2,251.3,284.6,251.3,284.6z"/>
	<path fill="#DB7B30" d="M248.6,247.7l2.7-0.7c-1.7-4-5.1-15.8,2.8-35.2c0,0-2.5,1.6-5.4,5.1C242.3,237.4,248.6,247.7,248.6,247.7z"
		/>
	<path fill="#DB7B30" d="M260.7,305c0.1-0.4,0.3-0.7,0.4-1c1.2-6.7,3.3-14.1,6.9-22.2l-4,1.1c-3.4,8.2-5.5,15.8-6.5,22.6l3.1,1.9
		c0.1-0.9,0.3-1.9,0.4-2.8C260.8,304.8,260.7,305,260.7,305z"/>
	<path d="M230.6,266l-14.6,2l-3.5,0.5c0,0-2.9-34.3,19.8-53.6c0.3-0.2,0.5-0.5,0.8-0.7h-10.8h-3.6c0,0,1.2-13.5,17.3-24.9
		c2.6-1.8,5.5-3.6,8.9-5.2c0,0-38.6,8.8-40.6,37.8l3.5,0.4l7.3,0.7c0,0-0.1,0.1-0.3,0.4c-2.3,3-17.6,24.5-14.6,48.2l9.5,5.6l1.8-0.4
		c0,0-0.2,0.4-0.6,1.1l9.1,5.4c2.3-5.7,5.3-11.1,9.3-15.9C229.8,266.9,230.2,266.5,230.6,266z"/>
	<path d="M219.2,359.7l0.9-1l5.4-6.2c0,0,0.2,1.2,1.4,3.3c2.3,4.3,8.6,12.5,24.9,21.5l1-0.7l12.4-8.1c0,0,0.6,0.8,1.8,2.1
		c0.8,1,2,2.2,3.3,3.6c0-0.2,0-0.4,0-0.6c0.2-1.7,1.1-3.1,2.6-4l3.8-2.3c-2.8-4.2-6.2-8.2-10.2-10.7c-0.9-0.6-1.8-1.1-2.8-1.5
		l-10,7.9l-1.2,1c0,0-15.2-10.2-19-27.8c-3.9-2.3-7.9-4.5-11.9-6.9c-1.3,0.6-2.6,1.3-3.7,2c-1.5,1-2.6,2-3.1,3c0,0-0.5-3.6-0.7-9.3
		c-4.8-2.8-9.7-5.6-14.6-8.4C198.2,332.1,202,348.8,219.2,359.7z"/>
	<path d="M224.8,371.5c-0.5-1.1-0.8-2.1-0.9-3l-9.6,8.4l-1.1,1c0,0-31.1-19.7-26-68.4c-9.6-5.5-19.3-11.1-29.2-16.8
		c-0.3,7,0.3,14,2.1,20.8l3.1-0.8l8.8-2.2c0,0-0.2,0.6-0.5,1.8c-2.4,8.9-9.9,50.7,47.4,85.2l0.8-0.8l5.5-5.9c0,0,0.7,0.9,2.1,2.3
		c3.9,4,13.2,11.8,27.6,14.7c1.1,0.2,2.2,0.4,3.3,0.6C257.9,408.3,230.4,384.2,224.8,371.5z"/>
	<path d="M190.2,221.5c1.5-4.4,3.3-8.6,5.3-12.5c0,0-16,18.7-27.2,43.7l13,7.7C182.9,248.6,185.6,234.5,190.2,221.5z"/>
	<path d="M264.7,281l-10.1,2.7l-3.3,0.9c0,0-0.4-22.5,10.4-38.4c0.5-0.7,1-1.4,1.5-2.1l-11.8,2.9l-2.7,0.7c0,0-6.4-10.4,0.1-30.7
		c0.6-1.9,1.3-3.9,2.1-6c0,0-22.8,14.4-14.5,55.9l3.1-1.3l7.2-3.2c0,0-0.5,1-1.2,2.8c-2,5.2-5.5,17.1-3.8,30.9l6.6,3.9l1.5-0.9
		c0,0-0.1,0.6-0.3,1.6l8.1,4.8c1-6.8,3-14.4,6.5-22.6C264.2,282.2,264.5,281.6,264.7,281z"/>
	<path fill="#F2F2F2" d="M332.2,258.7c0.7,0.3,1.4,0.5,2.1,0.8l0.5-4.5c0,0-0.7-0.2-2.1-0.5L332.2,258.7z"/>
	<path fill="#F2F2F2" d="M275,259.9c-3.3,1.3-6.6,2.7-10,4.5c0,0,40-14.3,65.7-6.2C313.8,251.7,289.4,256.1,275,259.9z"/>
	<path fill="#F2F2F2" d="M344.1,269.5c-15.6-8.7-50.7-2.2-70.9,2.6c-4.2,1.4-8.5,3-13,4.8C260.2,277,319.9,259,344.1,269.5z"/>
	<path fill="#F2F2F2" d="M347.7,271.5l2.5-3.6c0,0-0.7-0.4-2.1-1l-2.4,3.4C346.4,270.6,347.1,271,347.7,271.5z"/>
	<path d="M286.7,288.7c-1.6,1-3,2.1-4.4,3.3l2.1-0.2L286.7,288.7z"/>
	<path d="M289.1,359.2c0,0.1,0,0.3,0,0.4l3.9-2.3c-0.8-1-1.6-2-2.4-3.1l-3.4-0.7l1.5,3.8C289,357.9,289.1,358.5,289.1,359.2z"/>
	<path d="M116.9,269.1c-1.3-0.7-2.5-1.5-3.8-2.2c-9.2,10.9-4.8,16.2-4.8,16.2s0.2-0.6,0.6-1.6C110,279.1,112.5,273.9,116.9,269.1z"
		/>
	<path d="M273.7,303.9c-1.2,2.8-2,6.1-2.5,9.6l7.9,4.7c0.4-2.7,1.1-5,1.9-7.1L273.7,303.9z"/>
	<path fill="#FDB515" d="M425.8,263.9c0,0,0.7,1,1.5,2.8C427.2,265.7,426.7,264.8,425.8,263.9z"/>
	<path fill="#FDB515" d="M403,291.2c-0.8,5.3,13.1,7.4,13.1,7.4c15.9-13.8,13.4-26.4,11.1-31.8C428.7,275.9,403.2,289.9,403,291.2z"
		/>
	<path fill="#FDB515" d="M412,187.5c0,0-19.4-25.7-34.8-7.8c0,0,11.3-3.1,14.4,0.5c0,0-10.9,0.8-6.6,19.3
		C385,199.4,398.4,174.6,412,187.5z"/>
	<path fill="#FDB515" d="M385.1,159.8c-11.3-0.3-14.4,12.1-14.4,12.1c13.3-12.1,33,0,33,0S396.4,160.2,385.1,159.8z"/>
	<path fill="#FDB515" d="M369.4,159.6c4.5-6.3,15.5-4.4,15.5-4.4c-9.4-15.1-30.1-2.3-28.7,0.5C357.6,158.3,364.7,165.7,369.4,159.6z
		"/>
	<path fill="none" stroke="#FDB515" stroke-width="0" stroke-linecap="round" stroke-linejoin="round" d="M361.8,141.3
		c0.1-0.1,0.3-0.2,0.4-0.3c0.1-0.1,0.2-0.2,0.2-0.2"/>
	<path fill="#FDB515" d="M349.4,146.7c6.7-1.6,11-4.3,12.5-5.3c-2.9,1.8-8.7,0.9-20.6-2c-12.8-3.1-26.7,1.6-26.7,1.6
		C327.3,138.5,340.8,148.6,349.4,146.7z"/>
	<path fill="#F2F2F2" d="M321.9,207.1c-6.3-2.4-9.4,3.3-9.4,3.3s-9.2,14.9,7.6,14.5C317.5,216.7,319.9,210.5,321.9,207.1z"/>
	<path fill="#F2F2F2" d="M332.7,216.8c-2.6-3.6-5-6-7.1-7.6c1.6,7.4-1,12.8-2.9,15.5c3.6-0.4,8.1-1.3,13.8-3L332.7,216.8z"/>
	<path fill="#F2F2F2" d="M406.8,202.4c-0.9,0-1.6,0.2-2.3,0.4c1.2,2.8,1,6.1,0.8,7.9c3.4-1.7,6.2-4.6,6.2-4.6
		C410.1,201.3,406.8,202.4,406.8,202.4z"/>
	<path fill="#F2F2F2" d="M401.7,204c-1.6,1.1-2.4,2.3-2.4,2.3l-3.3,2c2,4.1,5.2,4.1,8.3,2.8C402.1,208.8,401.7,205.9,401.7,204z"/>
	<path fill="#F2F2F2" d="M328.5,301.7l-15-5.8c0,0,0,16.6,6.3,27.5C319.7,323.3,324.4,306.9,328.5,301.7z"/>
	<path fill="#F2F2F2" d="M397.1,311.4c0,0-2.7,19.8-4.7,23.8c0,0,14.7-18,15-25.4C407.4,309.9,399.1,311.4,397.1,311.4z"/>
	<polygon fill="#F2F2F2" points="378.4,309.4 380.6,313.3 386.8,309.8 	"/>
	<polygon fill="#F2F2F2" points="368.6,309.3 358.5,307.8 362.1,312.8 	"/>
	<polygon fill="#F2F2F2" points="338.8,303.9 340.6,308.6 350.3,305.9 	"/>
	<path fill="#F2F2F2" d="M370.4,386.4c0,0,7.3-11.6,5.6-17.3c0,0-7.8,9.7-13.6,14.4l-6.6-6.6l-10.8,8.5l-5.9-8.5l-11.6,5.3
		c0,0-12.4-9-10-27.5c0,0-9.7,9.9-6.1,23.2C311.5,378.1,335.6,402.6,370.4,386.4z"/>
	<path d="M263,263.5c0,0,4.8-1.7,12.1-3.6c14.4-3.7,38.7-8.2,55.7-1.7c0.5,0.2,1,0.4,1.5,0.6l0-0.1l0.4-4.3l0-0.3
		C332.6,254,300.5,244.5,263,263.5z"/>
	<path d="M261.1,304.4c0.9-1.4,3.7-5.5,8.4-10.3c10-10.2,28.7-23.2,56.4-19c0,0,1-2.1,0.6-3.3c-0.1-0.3-0.3-0.6-0.6-0.7
		c0,0-49.2-5.4-64.7,32.8c-0.1,0.4-0.3,0.7-0.4,1C260.7,305,260.8,304.8,261.1,304.4z"/>
	<path d="M344.1,269.5c0.5,0.3,1.1,0.6,1.5,0.9l0.1-0.2l2.4-3.4l0,0c0,0-27.8-16.2-90,9.3c0,0,6.1-1.8,15.1-4
		C293.4,267.3,328.4,260.8,344.1,269.5z"/>
	<path fill="#FDB515" d="M266.3,139.6c-14.8-1.9-35.1-13.3-35.1-13.3l8.9,12.4C252.2,158.1,266.3,139.6,266.3,139.6z"/>
	<path fill="#F2F2F2" d="M152.3,289.8c-0.1,0.8-0.2,1.5-0.2,2.1c0,0.6,0.1,1.2,0.4,1.8c-0.2,7.5,0.5,14.6,2.3,21.2
		c0.8,2.8,3.7,4.6,6.5,3.8l3.5-0.9c-0.7,5.6-0.9,13.5,1.1,22.7c3.6,16.5,15.1,40.5,50.1,61.5c2.2,1.3,5,0.9,6.8-1l2.3-2.5
		c5.5,5.1,16.3,12.9,32.2,15c0.2,0,0.5,0,0.7,0c1.8,0,3.4-0.9,4.4-2.3h8.4c3.9,2.3,7.9,2.6,11.2,2.9c0.4,0,0.7,0.1,1.1,0.1
		c5.1,5.7,15.8,10.1,24.8,10.1c1.7,0,3.3-0.2,4.7-0.5c1.4-0.3,3-0.4,4.8-0.4c5.1,0,10.4,1.1,13.9,1.9l0.2,3.8c0.1,2.2,1.5,4,3.6,4.8
		c0.6,0.2,1.2,0.3,1.8,0.3c1.5,0,2.9-0.6,4-1.8c2.4-2.6,8.2-5.7,13.4-7.9c0.3,0.3,0.6,0.7,1,0.9c1.4,1,3.2,1.3,4.8,0.8l16.6-5.2
		c1.1-0.4,2.1-1.1,2.8-2c8.1-11.5,3.5-24,0.4-29.9c0.3-0.5,0.6-1.1,0.9-1.6c-1.6-1.4-2.8-3.1-3.6-4.9c-0.9,2.2-2.1,4.3-3.7,6.3
		c0,0,10.3,14.6,1.6,27l-16.6,5.2v-4.1c0,0-15.9,5.6-21.6,11.8l-0.5-7.7c0,0-14.5-4.7-24.8-2.7c-8.7,1.9-22.3-3.8-25.5-9.4
		c-4.4-0.7-9.4-0.1-13.6-3.3c-3.4,0-6.9,0-10.5,0c-1.8-1.2-4-1.7-6.3-2.2c3.5,3.3,5.9,5.3,5.9,5.3c-2.4-0.3-4.6-0.8-6.8-1.4
		c-14.4-2.9-23.7-10.7-27.6-14.7l-4.9,5.3c-0.9-0.6-1.8-1.1-2.7-1.7l-0.8,0.8c-57.3-34.4-49.8-76.2-47.4-85.2l-7.9,2.1
		c-0.1-0.5-0.2-1.1-0.4-1.6l-3.1,0.8c-1.8-6.8-2.4-13.8-2.1-20.8c9.8,5.7,19.6,11.3,29.2,16.8c1.1,0.7,2.3,1.3,3.4,2
		c3,1.7,5.9,3.4,8.8,5.1c4.9,2.8,9.8,5.6,14.6,8.4c1.2,0.7,2.3,1.3,3.5,2c1.3,0.8,2.6,1.5,4,2.3c4,2.3,8,4.6,11.9,6.9
		c1.3,0.7,2.6,1.5,3.9,2.2c11.4,6.5,22.4,12.9,33,18.9l11.2,6.4c0.2,0.1,0.4,0.2,0.6,0.2l-3.3,2l-2.1,1.3l-3.8,2.3
		c-1.4,0.9-2.4,2.3-2.6,4c0,0.2,0,0.4,0,0.6c0,1.4,0.5,2.8,1.6,3.8l10.8,10.7c1,1,2.4,1.6,3.8,1.6c0.2,0,0.4,0,0.6,0
		c1.6-0.2,3.1-1.1,4-2.4l5.9-9.1l6.5-9.9l4.3-6.5l1.9-3c0.5-0.8,0.8-1.8,0.9-2.7c0.1-1.4-0.4-2.9-1.5-4c-1.8-1.8-4.5-2.2-6.7-0.9
		l-1.4,0.8c0.4-0.7,0.6-1.5,0.6-2.4c0-1.4-0.5-2.6-1.5-3.6l-2.6-2.6l5.7,0.1c0,0,0.1,0,0.1,0c1.4,0,2.6-0.5,3.6-1.5
		c1-1,1.5-2.2,1.5-3.6c0-0.9-0.2-1.7-0.7-2.5c-0.4-0.8-1-1.4-1.8-1.9L287,322.8c0,0-0.1,0-0.1,0l-7.7-4.6l-7.9-4.7l-10.6-6.3
		l-3.1-1.9l-8.1-4.8l-1.1-0.7l-6.6-3.9l-18.5-10.9l-3.1-1.8l-9.1-5.4l-1.2-0.7l-9.5-5.6l-15.6-9.2l-3.4-2l-13-7.7l-7.4-4.4
		L40.8,177.4c-0.8-0.5-1.7-0.7-2.6-0.7c-0.9,0-1.8,0.2-2.6,0.7c-0.8,0.5-1.4,1.1-1.9,1.9l-15.1,27.5c-0.4,0.8-0.6,1.6-0.6,2.5
		c0,0.9,0.2,1.8,0.7,2.6c0.5,0.8,1.1,1.4,1.9,1.9c28.8,16.5,58.6,33.6,88.1,50.5l-1.1,0.9c-2.9,3.8-4.7,7.5-5.4,11
		c-1.1,6.1,1.5,9.7,2,10.3c1.2,1.5,3.2,2.2,5.1,1.9c1.9-0.3,3.5-1.7,4.1-3.5c0,0,0.1-0.2,0.1-0.4c4.5-5,8.3-8.2,12-10.5
		c2.7,1.5,5.4,3.1,8.1,4.6c0.7,0.4,1.5,0.8,2.2,1.3l9.3,5.5L152.3,289.8z M113.1,266.9c1.3,0.7,2.5,1.5,3.8,2.2
		c1.1,0.6,2.2,1.3,3.3,1.9c-3.5,2.5-7.2,5.8-11.3,10.5c-0.4,1-0.6,1.6-0.6,1.6S103.8,277.8,113.1,266.9z M287.2,353.5l3.4,0.7l4.7,1
		c0.3,0.1,0.7,0.1,1,0.1c0,0,0,0,0,0l-3.4,2l-3.9,2.3c0-0.1,0-0.3,0-0.4c0-0.7-0.1-1.3-0.4-1.9L287.2,353.5z M305,356.4l-18.6,28.4
		l-10.8-10.7L305,356.4z M38.2,181.9l246.1,145.3l18.9,11.6l-18.3-0.3l11.4,11.6l-17.5-3.6l5.1,12.7l-11.2-6.4
		C164,290.5,23,209.3,23,209.3L38.2,181.9z"/>
	<path fill="#DB7B30" d="M502.2,178.7l60.8-29.3l-3.8-17.1c0,0-47.8,19.8-63.7,33.4L502.2,178.7z"/>
	<path fill="#DB7B30" d="M378.9,352.1l8.3-1.4l-13.4,12.4l18.4-5.7l-2,4.1c0.4-0.3,0.8-0.5,1.3-0.8c2-2.6,4.8-4.5,8.2-5.1l0.6-0.1
		c16.3-9.6,26.5-15.5,27.1-15.9c29.1-15.2,109.4-68.6,118.1-80c8.6-11.5,18.7-27.5,17.2-46.6l-43.1,18c0,0,7,40.3-58,74.7
		C446.8,313.5,416.7,330.5,378.9,352.1z"/>
	<polygon fill="#F2F2F2" points="518.7,220.4 550.9,199.4 517.2,212.2 	"/>
	<polygon fill="#F2F2F2" points="539.9,191.4 513.7,201.5 515.9,206.4 	"/>
	<polygon fill="#F2F2F2" points="539.5,174.5 507.5,186.6 511.5,195.1 	"/>
	<path fill="#F2F2F2" d="M288.9,285.8l-2.2,2.9l-2.3,3.1l-2.1,0.2l-7.3,0.6c-0.3,0-0.5,0.1-0.8,0.2c10.5-9.7,28.5-20.5,54.1-16.6
		c0,0,1.4-3.1,0-4.2c0,0-0.7-0.1-1.9-0.1c0.5,1.3-0.6,3.3-0.6,3.3c-27.7-4.3-46.4,8.8-56.4,19c-2.5,3.4-4.8,7.4-6.5,11.9
		c0,0,2.4-4.1,7.3-9.3c-0.4,1.8,0.1,3.8,1.4,5.1l2.1,2l7.3,7.2l17.4,17c1,1,2.4,1.5,3.8,1.5c0.9,0,1.9-0.2,2.7-0.7
		c2.1-1.2,3.1-3.7,2.5-6l-7-27.3l-2-7.8c-0.4-1.4-1.2-2.5-2.4-3.2c-0.6-0.3-1.1-0.6-1.8-0.8C292.2,283.3,290.1,284.2,288.9,285.8z
		 M302.3,324.2L275.4,298l11.9-0.9l5.9-8L302.3,324.2z"/>
	<path d="M275.6,374.1l10.8,10.7l18.6-28.4L275.6,374.1z M286.9,380.4l-5.8-6.3l15.8-10.5L286.9,380.4z"/>
	<path d="M287.3,297l-11.9,0.9l26.9,26.2l-9.1-35.1L287.3,297z M297.7,315.4l-13.1-15.2h6.3l1.7-2.7L297.7,315.4z"/>
	<polygon fill="#DB7B30" points="281.1,374.1 286.9,380.4 296.9,363.6 	"/>
	<polygon fill="#DB7B30" points="290.8,300.2 284.6,300.2 297.7,315.4 292.6,297.5 	"/>
	<path d="M389.3,377.8l28.1,22.9v-9.9l8.9-8L389.3,377.8z M412.8,389.9l0.3,3.3l-14.8-11.1l19.5,4.2L412.8,389.9z"/>
	<path d="M401.9,368.7l41.5,10.7l-4.2-8.6l6.7-9.9L401.9,368.7z M433.8,371.9l1.6,2.7l-21.6-4.9l23.9-2.7L433.8,371.9z"/>
	<path fill="#F2F2F2" d="M445,355.8l-44.1,7.8c-1.2,0.2-2.2,0.8-3,1.8c-0.8,1-1.2,2.1-1.2,3.3c0,1.2,0.4,2.2,1.1,3.2
		c0.7,0.9,1.6,1.5,2.8,1.8l2.5,0.6l-13.2-1.8c-0.2,0-0.5,0-0.7,0c-1.4,0-2.6,0.5-3.6,1.5c-1,1-1.5,2.2-1.5,3.6
		c0,0.8,0.2,1.5,0.5,2.2c0.3,0.7,0.8,1.3,1.4,1.8l28.1,22.9c0.9,0.8,2,1.2,3.2,1.2c1.4,0,2.6-0.5,3.6-1.5c1-1,1.5-2.2,1.5-3.6V393
		l7.2-6.5c1.1-1,1.7-2.3,1.7-3.8c0-0.4,0-0.8-0.1-1.1l10.9,2.8c0.4,0.1,0.8,0.2,1.3,0.2c1.4,0,2.6-0.5,3.6-1.5c1-1,1.5-2.2,1.5-3.6
		c0-0.8-0.2-1.6-0.5-2.3l-2.9-5.9l5-7.4c0.6-0.9,0.9-1.8,0.9-2.9c0-1.4-0.5-2.6-1.5-3.6c-1-1-2.2-1.5-3.6-1.5
		C445.6,355.7,445.3,355.7,445,355.8z M417.4,390.8v9.9l-28.1-22.9l37,5L417.4,390.8z M439.2,370.8l4.2,8.6l-41.5-10.7l44.1-7.8
		L439.2,370.8z"/>
	<polygon fill="#DB7B30" points="417.8,386.3 398.3,382.1 413.1,393.2 412.8,389.9 	"/>
	<polygon fill="#DB7B30" points="413.8,369.7 435.4,374.5 433.8,371.9 437.8,367 	"/>
	<path d="M272.7,352.8l11.2,6.4l-5.1-12.7l17.5,3.6l-11.4-11.6l18.3,0.3l-18.9-11.6L38.2,181.9L23,209.3
		C23,209.3,164,290.5,272.7,352.8z M60.5,200.7l7.3,4.7l-13.7,13.2L60.5,200.7z M72.8,208.7l7.3,4.7l-13.7,13.2L72.8,208.7z
		 M85.2,216.7l7.5,4.7l-13.7,13.2L85.2,216.7z M100.5,227.1c46.9,27.3,115.5,67.2,181.2,105.7l6.4,3.8l-9.8,0.2L290,346l-20-5.8
		l5.2,6.7c-63.7-36.3-134.7-76.9-183.5-104.7L100.5,227.1z"/>
	<polygon fill="#F2F2F2" points="60.5,200.7 54.1,218.6 67.8,205.4 	"/>
	<polygon fill="#F2F2F2" points="72.8,208.7 66.4,226.6 80.1,213.4 	"/>
	<polygon fill="#F2F2F2" points="85.2,216.7 78.9,234.6 92.6,221.4 	"/>
	<path fill="#DB7B30" d="M275.2,347l-5.2-6.7l20,5.8l-11.7-9.3l9.8-0.2l-6.4-3.8c-65.8-38.5-134.3-78.4-181.2-105.7l-8.8,15.2
		C140.5,270.1,211.5,310.6,275.2,347z"/>
</g>
</svg>
